<svg width="87" height="100" viewBox="0 0 87 100" fill="none" xmlns="http://www.w3.org/2000/svg">
<g id="Group">
<path id="Vector" d="M38.3304 52.2877C36.2818 53.3608 34.0006 53.9236 31.6819 53.9236C29.3707 53.9236 27.0894 53.3608 25.0409 52.2877V54.6365C25.0409 55.4919 24.8232 56.3098 24.4255 57.0302L30.0535 62.9509C30.2186 63.1235 30.2861 63.3411 30.2786 63.5587C30.6763 63.5887 31.0741 63.6112 31.4793 63.6112C32.0196 63.6112 32.5598 63.5737 33.0926 63.5137C33.0926 63.3111 33.1677 63.1084 33.3177 62.9509L38.9457 57.0302C38.5405 56.2948 38.3304 55.4694 38.3304 54.6365V52.2877Z" fill="#F8D0B5"/>
<path id="Vector_2" d="M44.0483 22.2493C43.1028 21.2588 41.572 21.1687 40.499 22.0167C38.8031 23.3524 35.8615 25.0032 31.7043 25.0032C27.5396 25.0032 24.583 23.3449 22.8796 22.0092C21.8066 21.1687 20.2758 21.2663 19.3378 22.2493L19.3303 22.2568C18.0096 23.645 17.2742 25.4835 17.2742 27.4045V39.5084C17.2742 47.4401 23.7651 53.931 31.6968 53.931C39.6285 53.931 46.1194 47.4401 46.1194 39.5084V27.397C46.1044 25.476 45.369 23.6375 44.0483 22.2493Z" fill="#F8D0B5"/>
<path id="Vector_3" d="M47.0275 28.5076C46.7123 28.5076 46.4046 28.5376 46.1045 28.5826V39.5009C46.1045 39.8236 46.0895 40.1462 46.067 40.4689C46.3821 40.5214 46.6973 40.5514 47.0275 40.5514C50.3517 40.5514 53.0457 37.8575 53.0457 34.5333C53.0532 31.2015 50.3592 28.5076 47.0275 28.5076ZM17.2592 39.5009V28.5826C16.9516 28.5376 16.6439 28.5076 16.3362 28.5076C13.012 28.5076 10.3105 31.2015 10.3105 34.5333C10.3105 37.8575 13.0045 40.5514 16.3362 40.5514C16.6664 40.5514 16.9816 40.5214 17.2967 40.4689C17.2742 40.1462 17.2592 39.8236 17.2592 39.5009Z" fill="#F8D0B5"/>
<path id="Vector_4" d="M46.0518 16.2085C45.5715 16.2085 45.1513 15.8333 45.1438 15.3531C45.0312 7.31631 35.8539 5.80801 26.714 7.38385C18.9624 8.71955 13.3044 15.4431 13.3044 23.3073V29.3405C14.2274 28.8002 15.2705 28.515 16.3361 28.515C16.6512 28.515 16.9589 28.545 17.259 28.5901V27.4044C17.259 25.4909 17.9944 23.645 19.3226 22.2567L19.3301 22.2492C20.2681 21.2587 21.7989 21.1686 22.872 22.0091C24.5754 23.3448 27.532 25.0032 31.6967 25.0032C35.8539 25.0032 38.7954 23.3523 40.4913 22.0166C41.5644 21.1761 43.1027 21.2662 44.0407 22.2567C45.3614 23.645 46.0968 25.4834 46.0968 27.4044V28.5901C46.4045 28.545 46.7121 28.515 47.0198 28.515C48.1379 28.515 49.1809 28.8227 50.0814 29.3555V24.4029C50.0964 17.2065 47.4925 16.2085 46.0518 16.2085Z" fill="#5C5E61"/>
<path id="Vector_5" d="M31.6817 54.8916C23.1947 54.8916 16.2911 47.9879 16.2911 39.5009V27.397C16.2836 25.2284 17.124 23.1498 18.6173 21.5814C19.908 20.2307 21.9866 20.0881 23.4649 21.2438C25.0857 22.5119 27.8397 24.0277 31.6967 24.0277C35.5463 24.0277 38.2777 22.5194 39.8911 21.2513C41.3693 20.0882 43.4554 20.2307 44.7461 21.5814C46.2469 23.1498 47.0798 25.2284 47.0723 27.397V39.5009C47.0723 47.9879 40.1687 54.8916 31.6817 54.8916ZM21.2212 22.3994C20.7709 22.3994 20.3357 22.587 20.028 22.9096C18.8724 24.1178 18.2271 25.7236 18.2271 27.3895V39.4934C18.2271 46.9149 24.2603 52.948 31.6817 52.948C39.1031 52.948 45.1363 46.9149 45.1363 39.4934V27.397C45.1363 25.7236 44.4985 24.1328 43.3429 22.9171C42.7501 22.2943 41.782 22.2343 41.0917 22.7746C39.2382 24.2303 36.1015 25.9638 31.6967 25.9638C27.2844 25.9638 24.1327 24.2228 22.2717 22.7671C21.9716 22.5344 21.6039 22.3994 21.2212 22.3994Z" fill="black"/>
<path id="Vector_6" d="M47.0275 41.5195C46.8024 41.5195 46.5697 41.5045 46.3221 41.482C45.0689 41.3169 45.2715 39.4484 46.5322 39.5535C46.7048 39.576 46.8699 39.5835 47.0275 39.5835C49.8114 39.5835 52.0776 37.3173 52.0776 34.5333C52.0776 31.7493 49.8114 29.4831 47.0275 29.4831C46.8624 29.4831 46.6898 29.4906 46.5172 29.5132C45.9844 29.5732 45.5117 29.183 45.4516 28.6502C45.3991 28.1174 45.7818 27.6372 46.3146 27.5846C46.5547 27.5621 46.7948 27.5471 47.0275 27.5471C50.8845 27.5471 54.0212 30.6838 54.0212 34.5408C54.0212 38.3828 50.8845 41.5195 47.0275 41.5195ZM16.3362 41.5195C12.4792 41.5195 9.34253 38.3828 9.34253 34.5258C9.34253 30.6688 12.4792 27.5321 16.3362 27.5321C16.5689 27.5321 16.8015 27.5471 17.0341 27.5696C17.5669 27.6222 17.9496 28.1024 17.8971 28.6352C17.8445 29.168 17.3643 29.5582 16.8315 29.4981C16.6664 29.4831 16.4938 29.4756 16.3287 29.4756C13.5448 29.4756 11.2786 31.7418 11.2786 34.5258C11.2786 37.3098 13.5448 39.576 16.3287 39.576C16.5013 39.576 16.6739 39.5685 16.869 39.546C17.4018 39.4859 17.8821 39.8611 17.9421 40.3939C18.0021 40.9267 17.6269 41.4069 17.0941 41.467C16.8315 41.5045 16.5839 41.5195 16.3362 41.5195ZM31.892 45.9544C30.0385 45.9544 28.3051 45.1965 27.2395 43.9358C26.8943 43.5231 26.9469 42.9152 27.3596 42.5701C27.7723 42.2249 28.3801 42.2774 28.7253 42.6901C29.4232 43.5231 30.6088 44.0183 31.892 44.0183C33.1751 44.0183 34.3608 43.5231 35.0586 42.6901C35.3963 42.2699 36.0191 42.2099 36.4319 42.5626C36.8446 42.9077 36.8971 43.5306 36.5444 43.9358C35.4789 45.1965 33.7454 45.9544 31.892 45.9544Z" fill="black"/>
<path id="Vector_7" d="M40.334 35.1936C40.334 36.2667 39.4635 37.1296 38.3979 37.1296C37.3249 37.1296 36.4619 36.2592 36.4619 35.1936C36.4619 34.1205 37.3324 33.2576 38.3979 33.2576C39.471 33.2576 40.334 34.128 40.334 35.1936Z" fill="black"/>
<path id="Vector_8" d="M27.322 35.1936C27.322 36.2667 26.4515 37.1296 25.386 37.1296C24.3129 37.1296 23.45 36.2592 23.45 35.1936C23.45 34.1205 24.3204 33.2576 25.386 33.2576C26.459 33.2576 27.322 34.128 27.322 35.1936Z" fill="black"/>
<path id="Vector_9" d="M13.3045 30.0609C12.7717 30.0609 12.3365 29.6257 12.3365 29.0929V23.3073C12.3214 14.9704 18.3321 7.83413 26.5565 6.43089C33.8053 5.17772 39.846 6.01817 43.1177 8.74211C45.0463 10.3405 46.0518 12.5316 46.1118 15.2405C47.9878 15.2631 51.0644 16.5162 51.0644 24.4029V28.9878C51.0644 30.2785 49.1284 30.2785 49.1284 28.9878V24.4029C49.1284 19.8105 48.0103 17.1766 46.0518 17.1766C45.0312 17.1766 44.1908 16.3661 44.1758 15.3681C44.1458 13.1995 43.3729 11.4736 41.8796 10.2354C39.0431 7.87915 33.5727 7.18879 26.8867 8.3444C19.5928 9.59006 14.265 15.9159 14.28 23.3073V29.0929C14.2725 29.6257 13.8372 30.0609 13.3045 30.0609Z" fill="black"/>
<path id="Vector_10" d="M1.05046 96.0133L2.92645 69.6893C3.10654 67.1155 4.7124 64.8568 7.08365 63.8512L20.1331 58.2983C20.8084 58.0132 21.5888 58.3959 21.7614 59.1162L31.6742 98.2494H3.12155C2.54375 98.2494 1.98845 98.0093 1.59824 97.5891C1.20804 97.1614 1.01294 96.5911 1.05046 96.0133ZM60.9397 76.7656H59.3788C58.831 76.7656 58.3883 76.3228 58.3883 75.775V73.4563C58.3883 73.0211 58.0956 72.6384 57.6754 72.5183C56.5423 72.2107 55.4542 71.7604 54.4337 71.1751C54.051 70.9575 53.5783 71.025 53.2706 71.3327L51.6272 72.9686C51.237 73.3588 50.6067 73.3588 50.224 72.9686L47.5376 70.2821C47.1474 69.8919 47.1474 69.2616 47.5376 68.8789L49.1734 67.243C49.4811 66.9354 49.5486 66.4551 49.331 66.0799C48.7457 65.0594 48.2955 63.9713 47.9878 62.8382C47.8752 62.418 47.4925 62.1253 47.0498 62.1253H44.7311C44.1833 62.1253 43.7405 61.6826 43.7405 61.1348V58.5234L43.2228 58.3058C42.5399 58.0207 41.767 58.4034 41.5944 59.1237L31.6817 98.2569H60.2343C60.8121 98.2569 61.3599 98.0168 61.7576 97.5966C62.1478 97.1764 62.3504 96.6061 62.3129 96.0283L60.9397 76.7656Z" fill="#754F35"/>
<path id="Vector_11" d="M60.9398 76.7656H59.379C58.8312 76.7656 58.3885 76.3229 58.3885 75.7751V73.4564C58.3885 73.0211 58.0958 72.6384 57.6756 72.5184C56.5425 72.2107 55.4544 71.7605 54.4339 71.1751C54.2763 71.0851 54.0962 71.0401 53.9161 71.0476C52.4528 72.8335 51.6574 75.0772 51.6574 77.3809V98.242H60.2344C60.8122 98.242 61.3675 98.0018 61.7577 97.5816C62.1479 97.1614 62.3505 96.5911 62.313 96.0133L60.9398 76.7656ZM11.7063 77.3809C11.7063 74.612 10.5581 71.9631 8.53207 70.0646L4.26982 66.0724C3.4819 67.123 3.01665 68.3837 2.92661 69.6894L1.05061 96.0133C1.00559 96.5911 1.2082 97.1539 1.60591 97.5816C1.99611 98.0018 2.55141 98.242 3.12921 98.242H11.7063V77.3809ZM21.7691 59.1088C21.589 58.3959 20.8161 58.0057 20.1407 58.2908L17.3492 59.484V75.1973C17.3492 75.5274 17.5819 75.8201 17.9045 75.8951L21.559 76.7356C21.9942 76.8331 22.2268 77.3059 22.0542 77.7111L20.3958 81.5756C20.1857 82.0709 20.1932 82.6337 20.4184 83.1215L27.4496 98.242H31.6818L21.7691 59.1088ZM44.7387 62.1178C44.1909 62.1178 43.7482 61.6751 43.7482 61.1273V58.5159L43.2304 58.2983C42.5476 58.0132 41.7747 58.3959 41.6021 59.1163L31.6893 98.2495H35.9216L42.9528 83.129C43.1779 82.6412 43.1854 82.0784 42.9753 81.5832L41.3169 77.7186C41.1443 77.3059 41.377 76.8406 41.8122 76.7431L45.4591 75.9026C45.7818 75.8276 46.0144 75.535 46.0144 75.2048V62.1178H44.7387Z" fill="#9C6C4C"/>
<path id="Vector_12" d="M21.769 59.1088L23.1347 64.5117L25.566 67.4532C25.9037 67.866 26.534 67.881 26.8942 67.4908L30.0534 64.0689C30.3461 63.7538 30.346 63.2585 30.0459 62.9434L23.9677 56.55C23.6975 56.2648 23.2473 56.2498 22.9546 56.5124L21.0261 58.2759C21.3788 58.4185 21.6715 58.7111 21.769 59.1088ZM36.4693 67.4983C36.8295 67.8885 37.4598 67.8735 37.7975 67.4607L40.2288 64.5192L41.602 59.1163C41.6996 58.7111 41.9922 58.4185 42.3449 58.2909L40.4164 56.5275C40.1237 56.2648 39.6735 56.2798 39.4033 56.565L33.3251 62.9584C33.025 63.2735 33.025 63.7613 33.3176 64.084L36.4693 67.4983Z" fill="#EEF4FB"/>
<path id="Vector_13" d="M37.7975 67.4607C37.4598 67.8734 36.8295 67.8884 36.4693 67.4982L34.7734 65.6598C34.0906 66.6353 32.965 67.2731 31.6818 67.2731C30.4061 67.2731 29.273 66.6353 28.5902 65.6598L26.8943 67.4982C26.5341 67.8884 25.9037 67.8734 25.5661 67.4607L23.1348 64.5192L31.6743 98.2495L40.2213 64.5192L37.7975 67.4607Z" fill="#DAE6F1"/>
<path id="Vector_14" d="M31.6367 98.0544L31.7867 97.8593L35.4112 83.5417L33.6327 66.7253C32.4396 67.4532 30.9388 67.4532 29.7382 66.7253L27.9597 83.5417L31.6367 98.0544Z" fill="#F1667E"/>
<path id="Vector_15" d="M33.3026 64.0689C33.1601 63.9188 33.085 63.7162 33.085 63.5061C32.5522 63.5661 32.0195 63.6037 31.4717 63.6037C31.0665 63.6037 30.6687 63.5811 30.271 63.5511C30.2635 63.7387 30.1885 63.9263 30.0609 64.0614L28.5977 65.6522C29.2805 66.6278 30.4061 67.2656 31.6893 67.2656C32.965 67.2656 34.0981 66.6278 34.7809 65.6522L33.3026 64.0689Z" fill="#F1667E"/>
<g id="Group_2">
<g id="Clip path group">
<mask id="mask0_9_158" style="mask-type:luminance" maskUnits="userSpaceOnUse" x="0" y="0" width="87" height="100">
<g id="SVGID_2_">
<path id="Vector_16" d="M86.8134 0H0V99.21H86.8134V0Z" fill="white"/>
</g>
</mask>
<g mask="url(#mask0_9_158)">
<path id="Vector_17" d="M31.6819 99.21H3.12927C2.28882 99.21 1.47089 98.8573 0.893087 98.2345C0.315281 97.6192 0.0226252 96.7787 0.0826569 95.9383L1.95865 69.6144C2.16126 66.6653 3.97722 64.1065 6.70116 62.9508L19.7506 57.3979C20.3359 57.1503 20.9962 57.1728 21.5665 57.4504C22.1368 57.7356 22.5495 58.2534 22.6996 58.8687L32.6124 97.9944C32.7775 98.6172 32.3122 99.21 31.6819 99.21ZM2.01868 96.0809C1.99617 96.396 2.10123 96.6887 2.31134 96.9213C2.52895 97.1539 2.8141 97.274 3.12927 97.274H30.4362L20.8311 59.3489C20.8161 59.2814 20.7711 59.2214 20.7111 59.1914C20.651 59.1613 20.5835 59.1613 20.516 59.1839L7.46656 64.7368C5.42548 65.5997 4.04475 67.5433 3.89468 69.7494L2.01868 96.0809ZM38.8407 57.7956C38.473 57.7956 38.1353 57.5855 37.9702 57.2553C37.5725 56.4374 37.3624 55.5444 37.3624 54.6364V52.5278C37.3624 51.2371 39.2984 51.2371 39.2984 52.5278V54.6364C39.2984 55.2443 39.441 55.8521 39.7111 56.3999C40.0263 57.0452 39.5535 57.7956 38.8407 57.7956ZM31.4718 64.5792C31.1266 64.5792 30.7514 64.5642 30.3237 64.5342C29.7909 64.4967 29.3932 64.0239 29.4307 63.4911C29.4682 62.9583 29.9335 62.5531 30.4737 62.5982C30.8489 62.6282 31.1716 62.6432 31.4718 62.6432C31.892 62.6432 32.3497 62.6132 32.86 62.5606C33.4003 62.4931 33.888 62.8833 33.9406 63.4161C34.0006 63.9564 33.6029 64.4366 33.0626 64.4817C32.5373 64.5492 32.0046 64.5792 31.4718 64.5792ZM24.5756 57.6906C23.8702 57.6906 23.3975 56.9552 23.6977 56.3173C23.9453 55.7846 24.0654 55.2218 24.0654 54.6364V52.5578C24.0654 51.2672 26.0014 51.2672 26.0014 52.5578V54.6364C26.0014 55.4994 25.8138 56.3398 25.4536 57.1278C25.3035 57.4654 24.9583 57.6906 24.5756 57.6906Z" fill="black"/>
</g>
</g>
<g id="Clip path group_2">
<mask id="mask1_9_158" style="mask-type:luminance" maskUnits="userSpaceOnUse" x="0" y="0" width="87" height="100">
<g id="SVGID_2__2">
<path id="Vector_18" d="M86.8134 0H0V99.21H86.8134V0Z" fill="white"/>
</g>
</mask>
<g mask="url(#mask1_9_158)">
<path id="Vector_19" d="M60.2344 99.21H31.6818C31.0515 99.21 30.5862 98.6172 30.7438 98.0019L40.6565 58.8687C40.8066 58.2534 41.2268 57.7356 41.7896 57.4579C42.3599 57.1728 43.0203 57.1578 43.6056 57.4054L44.1234 57.623C44.4836 57.7731 44.7162 58.1258 44.7162 58.516V61.1274L47.0574 61.1499C47.9279 61.1499 48.7008 61.7352 48.9259 62.5756C49.2111 63.6262 49.6313 64.6392 50.1716 65.5847C50.6068 66.3426 50.4792 67.3032 49.8639 67.9185L48.2205 69.5543L50.907 72.2783L52.5804 70.6424C53.1957 70.0196 54.1562 69.892 54.9141 70.3273C55.8596 70.8675 56.8726 71.2878 57.9232 71.5729C58.7636 71.8055 59.3489 72.5709 59.3489 73.4414V75.7601L60.9323 75.7826C61.4425 75.7826 61.8628 76.1728 61.9003 76.6831L63.2735 95.9383C63.3335 96.7787 63.0409 97.6192 62.4631 98.2345C61.8928 98.8573 61.0823 99.21 60.2344 99.21ZM32.9274 97.274H60.2344C60.5421 97.274 60.8422 97.1464 61.0523 96.9213C61.2624 96.6962 61.3675 96.396 61.345 96.0884L60.0318 77.7337H59.3789C58.2984 77.7337 57.4204 76.8557 57.4129 75.7751V73.4564C56.1973 73.1262 55.0341 72.646 53.9461 72.0156L52.3102 73.659C51.9425 74.0267 51.4397 74.2368 50.922 74.2368C50.3967 74.2368 49.9014 74.0342 49.5337 73.659L46.8473 70.9726C46.4796 70.6049 46.2695 70.1096 46.2695 69.5844C46.2695 69.0591 46.4721 68.5638 46.8473 68.1961L48.4832 66.5603C47.8603 65.4722 47.3726 64.3091 47.0424 63.0934H44.7237C43.6431 63.0934 42.7651 62.2155 42.7576 61.1349V59.1839C42.7201 59.1764 42.6751 59.1914 42.6376 59.2064C42.5776 59.2364 42.5325 59.2889 42.5175 59.3564L32.9274 97.274Z" fill="black"/>
</g>
</g>
</g>
<path id="Vector_20" d="M51.6572 98.7747C51.1245 98.7747 50.6892 98.3395 50.6892 97.8067V77.3809C50.6967 74.9121 51.5222 72.5259 53.0455 70.5823C53.8484 69.5693 55.3642 70.7699 54.5688 71.783C53.3156 73.3813 52.6328 75.3549 52.6253 77.3809V97.8067C52.6253 98.347 52.1975 98.7747 51.6572 98.7747ZM11.7061 98.9398C11.1733 98.9398 10.7381 98.5046 10.7381 97.9718V77.3884C10.7306 74.8821 9.69504 72.4958 7.87157 70.7774L3.85695 67.0179C3.45924 66.6502 3.43673 66.0349 3.80442 65.6447C4.17212 65.2545 4.79495 65.232 5.17765 65.6072L9.19227 69.3667C11.4059 71.4453 12.6666 74.3493 12.6666 77.3884V97.9718C12.6741 98.5046 12.2389 98.9398 11.7061 98.9398ZM27.3144 98.9398C26.9392 98.9398 26.594 98.7222 26.4364 98.377L19.5327 83.5267C19.1876 82.7913 19.1801 81.9433 19.4952 81.1929L21.0335 77.6135L17.6793 76.8406C16.9139 76.668 16.3736 75.9852 16.3736 75.1973V59.8742C16.3736 58.5835 18.3096 58.5835 18.3096 59.8742V74.9947L21.7614 75.7901C22.2492 75.9026 22.6619 76.2253 22.887 76.668C23.1121 77.1108 23.1271 77.6361 22.932 78.0938L21.2737 81.9583C21.1686 82.1985 21.1761 82.4761 21.2812 82.7163L28.1848 97.5666C28.4925 98.2044 28.0272 98.9398 27.3144 98.9398ZM36.079 98.8648C35.3736 98.8648 34.9009 98.1294 35.201 97.4841L42.0672 82.7163C42.1797 82.4761 42.1797 82.206 42.0822 81.9659L40.4238 78.1013C40.2287 77.6436 40.2437 77.1258 40.4688 76.6756C40.6939 76.2328 41.1067 75.9101 41.5944 75.7976L45.0462 75.0022V62.3505C45.0462 61.0598 46.9823 61.0598 46.9823 62.3505V75.1973C46.9823 75.9852 46.442 76.668 45.6766 76.8406L42.3223 77.6135L43.8606 81.1929C44.1833 81.9433 44.1683 82.7913 43.8231 83.5267L36.9645 98.302C36.7994 98.6397 36.4617 98.8648 36.079 98.8648ZM26.2488 68.7514C26.2338 68.7514 26.2113 68.7514 26.1963 68.7514C25.6635 68.7364 25.1607 68.4887 24.823 68.0835L22.4143 65.172C22.0691 64.7592 22.1291 64.1439 22.5418 63.8062C22.9545 63.4611 23.5699 63.5211 23.9076 63.9413L26.2488 66.7778L29.2504 63.5286L23.4273 57.4129L21.7764 58.9212C20.8234 59.7916 19.5177 58.3584 20.4707 57.4879L22.2942 55.822C22.9696 55.2067 24.0351 55.2442 24.6655 55.9046L30.7437 62.2979C31.389 62.9808 31.3965 64.0539 30.7587 64.7442L27.5995 68.166C27.2618 68.5337 26.7666 68.7514 26.2488 68.7514ZM37.1146 68.7514C36.5968 68.7514 36.1015 68.5337 35.7563 68.1585L32.5972 64.7367C31.9593 64.0389 31.9668 62.9733 32.6122 62.2904L38.6904 55.8971C39.3207 55.2367 40.3863 55.1992 41.0616 55.8145L42.9001 57.4954C43.2978 57.8556 43.3278 58.4709 42.9601 58.8611C42.6 59.2588 41.9846 59.2888 41.5944 58.9212L39.9285 57.4054L34.1055 63.5211L37.107 66.7703L39.4333 63.9488C39.771 63.5361 40.3863 63.4761 40.799 63.8212C41.2117 64.1589 41.2717 64.7743 40.9266 65.187L38.5403 68.0835C38.2026 68.4962 37.6999 68.7439 37.1671 68.7589H37.1146V68.7514Z" fill="black"/>
<path id="Vector_21" d="M35.3963 84.4046C34.901 84.4046 34.4883 84.0294 34.4358 83.5342L32.6873 67.033C32.6273 66.5002 33.0175 66.0274 33.5503 65.9674C34.0831 65.9149 34.5558 66.2976 34.6159 66.8303L36.3643 83.3316C36.4243 83.9094 35.9741 84.4121 35.3963 84.4046ZM27.9748 84.3521C27.397 84.3521 26.9468 83.8569 27.0068 83.2791L28.7553 66.7928C28.8153 66.26 29.288 65.8773 29.8208 65.9299C30.3536 65.9824 30.7363 66.4626 30.6838 66.9954L28.9354 83.4817C28.8828 83.9769 28.4701 84.3521 27.9748 84.3521Z" fill="black"/>
<path id="Vector_22" d="M31.6817 68.2412C30.2785 68.2412 28.9503 67.6258 28.0573 66.5453C27.7046 66.14 27.7572 65.5172 28.1699 65.172C28.5826 64.8269 29.1979 64.8794 29.5431 65.2996C30.0759 65.9374 30.8638 66.3051 31.6892 66.3051C32.5147 66.3051 33.3026 65.9374 33.8354 65.2996C34.1806 64.8869 34.7959 64.8269 35.2011 65.172C35.6138 65.5172 35.6664 66.1325 35.3212 66.5453C34.4207 67.6183 33.085 68.2412 31.6817 68.2412Z" fill="black"/>
<path id="Vector_23" d="M11.5112 45.4741C9.77024 45.1514 8.39701 43.8007 8.05933 42.0973C8.04432 42.0073 7.92426 42.0073 7.90925 42.0973C7.57908 43.8082 6.20585 45.1514 4.45743 45.4741C4.36738 45.4816 4.36738 45.6092 4.45743 45.6242C6.19835 45.9469 7.57158 47.2976 7.90925 49.001C7.92426 49.091 8.05183 49.091 8.05933 49.001C8.38951 47.2901 9.76273 45.9469 11.5112 45.6242C11.6012 45.6092 11.6012 45.4816 11.5112 45.4741Z" fill="#F6C94E"/>
<path id="Vector_24" d="M63.7163 32.207C62.6057 31.9969 61.7353 31.1415 61.5251 30.0609C61.5176 30.0084 61.4351 30.0084 61.4276 30.0609C61.2175 31.149 60.3395 32.0044 59.2364 32.207C59.1764 32.2145 59.1764 32.2971 59.2364 32.3046C60.347 32.5147 61.2175 33.3701 61.4276 34.4507C61.4351 34.5032 61.5176 34.5032 61.5251 34.4507C61.7353 33.3626 62.6132 32.5072 63.7163 32.3046C63.7688 32.2971 63.7688 32.2145 63.7163 32.207Z" fill="#F1667E"/>
<path id="Vector_25" d="M53.1507 5.71806H54.0512V4.81758C54.0512 3.18922 56.4975 3.18922 56.4975 4.81758V5.71806H57.398C59.0263 5.71806 59.0263 8.16436 57.398 8.16436H56.4975V9.06483C56.4975 10.6932 54.0512 10.6932 54.0512 9.06483V8.16436H53.1507C51.5149 8.16436 51.5149 5.71806 53.1507 5.71806Z" fill="#76D1F4"/>
<path id="Vector_26" d="M5.04278 57.6756C5.04278 58.3959 4.45747 58.9813 3.73709 58.9813C3.01671 58.9813 2.4314 58.3959 2.4314 57.6756C2.4314 56.9552 3.01671 56.3699 3.73709 56.3699C4.45747 56.3699 5.04278 56.9552 5.04278 57.6756Z" fill="#8BC64A"/>
<path id="Vector_27" d="M47.6802 1.30569C47.6802 2.02607 47.0949 2.61138 46.3745 2.61138C45.6542 2.61138 45.0688 2.02607 45.0688 1.30569C45.0688 0.58531 45.6542 0 46.3745 0C47.0949 0 47.6802 0.58531 47.6802 1.30569Z" fill="#F6C94E"/>
<path id="Vector_28" d="M70.0496 88.2918C70.0496 89.0122 69.4643 89.5975 68.7439 89.5975C68.0235 89.5975 67.4382 89.0122 67.4382 88.2918C67.4382 87.5714 68.0235 86.9861 68.7439 86.9861C69.4643 86.9861 70.0496 87.5714 70.0496 88.2918Z" fill="#F1667E"/>
<path id="Vector_29" d="M44.7387 56.3248H47.0574C47.4926 56.3248 47.8753 56.0321 47.9954 55.6119C48.3031 54.4788 48.7533 53.3907 49.3386 52.3702C49.5562 51.995 49.4887 51.5147 49.181 51.207L47.5451 49.5712C47.1549 49.181 47.1549 48.5506 47.5451 48.1679L50.2316 45.4815C50.6218 45.0913 51.2521 45.0913 51.6348 45.4815L53.2782 47.1249C53.5858 47.4326 54.0661 47.5001 54.4413 47.2825C55.4618 46.6972 56.5499 46.2469 57.683 45.9393C58.1032 45.8267 58.3959 45.444 58.3959 45.0013V42.6825C58.3959 42.1348 58.8386 41.692 59.3864 41.692H63.1909C63.7387 41.692 64.1814 42.1348 64.1814 42.6825V45.0013C64.1814 45.4365 64.4741 45.8192 64.8943 45.9393C66.0274 46.2469 67.1155 46.6972 68.136 47.2825C68.5112 47.5001 68.9915 47.4326 69.2992 47.1249L70.935 45.4815C71.3252 45.0913 71.9556 45.0913 72.3383 45.4815L75.0247 48.1679C75.4149 48.5582 75.4149 49.1885 75.0247 49.5712L73.3813 51.207C73.0737 51.5147 73.0061 51.995 73.2237 52.3702C73.809 53.3907 74.2593 54.4788 74.5669 55.6119C74.6795 56.0321 75.0622 56.3248 75.5049 56.3248H77.8237C78.3715 56.3248 78.8142 56.7675 78.8142 57.3153V61.1198C78.8142 61.6676 78.3715 62.1103 77.8237 62.1103H76.1878C76.1578 62.1028 76.1353 62.1028 76.1053 62.1028H73.7565C73.4188 62.1028 73.1412 62.3805 73.1412 62.7181V64.1514C73.1412 64.4215 72.9611 64.6542 72.706 64.7292C72.0081 64.9168 71.3327 65.202 70.7024 65.5621C70.4698 65.6972 70.1696 65.6522 69.982 65.4646L68.969 64.4516C68.924 64.4065 68.8714 64.369 68.8114 64.339C69.8394 62.8307 70.3872 61.0448 70.3872 59.2213C70.3872 54.1861 66.3051 50.104 61.2699 50.104C56.2347 50.104 52.1526 54.1861 52.1526 59.2213C52.1526 64.2565 56.2347 68.3386 61.2699 68.3386C63.1384 68.3386 64.8793 67.7758 66.3276 66.8078C66.3576 66.8678 66.3951 66.9279 66.4401 66.9729L67.4532 67.9859C67.6483 68.1735 67.6858 68.4737 67.5507 68.7063C67.1905 69.3366 66.9129 70.0045 66.7178 70.7099C66.6503 70.9725 66.4101 71.1526 66.14 71.1451H64.7217C64.3841 71.1451 64.1064 71.4227 64.1064 71.7604V75.7675C64.1064 76.3153 63.7312 76.7581 63.1759 76.7581H59.3714C58.8236 76.7581 58.3809 76.3153 58.3809 75.7675V73.4488C58.3809 73.0136 58.0882 72.6309 57.668 72.5108C56.5349 72.2032 55.4468 71.7529 54.4263 71.1676C54.0511 70.95 53.5708 71.0175 53.2632 71.3252L51.6273 72.9611C51.2371 73.3513 50.6068 73.3513 50.2241 72.9611L47.5376 70.2746C47.1474 69.8844 47.1474 69.2541 47.5376 68.8714L49.181 67.228C49.4887 66.9204 49.5562 66.4401 49.3386 66.0649C48.7533 65.0444 48.3031 63.9563 47.9954 62.8232C47.8828 62.403 47.5001 62.1103 47.0574 62.1103H44.7387C44.1909 62.1103 43.7481 61.6676 43.7481 61.1198V57.3153C43.7406 56.775 44.1834 56.3248 44.7387 56.3248Z" fill="#FCDD86"/>
<path id="Vector_30" d="M61.285 68.3387C56.2499 68.3387 52.1677 64.2565 52.1677 59.2213C52.1677 54.1862 56.2499 50.104 61.285 50.104C66.3202 50.104 70.4024 54.1862 70.4024 59.2213C70.4024 61.1198 69.8246 62.8833 68.8265 64.339C68.5939 64.219 68.3013 64.264 68.1137 64.4516L66.4553 66.11C66.2752 66.2976 66.2227 66.5752 66.3427 66.8078C64.8419 67.8134 63.0785 68.3387 61.285 68.3387Z" fill="#F6C94E"/>
<path id="Vector_31" d="M85.1551 71.1526H83.7218C83.4517 71.1526 83.2116 70.9725 83.144 70.7099C82.9564 70.012 82.6713 69.3367 82.3111 68.7063C82.176 68.4737 82.2135 68.1811 82.4086 67.986L83.4217 66.9729C83.6618 66.7328 83.6618 66.3426 83.4217 66.1025L81.7633 64.4441C81.5232 64.204 81.133 64.204 80.8928 64.4441L79.8798 65.4571C79.6922 65.6447 79.392 65.6897 79.1594 65.5547C78.5291 65.1945 77.8612 64.9168 77.1559 64.7217C76.8932 64.6467 76.7131 64.4141 76.7206 64.1439V62.7107C76.7206 62.373 76.443 62.0953 76.1053 62.0953H73.7566C73.4189 62.0953 73.1412 62.373 73.1412 62.7107V64.1439C73.1412 64.4141 72.9611 64.6467 72.706 64.7217C72.0081 64.9093 71.3328 65.187 70.7024 65.5547C70.4698 65.6897 70.1697 65.6447 69.9821 65.4571L68.969 64.4441C68.7289 64.204 68.3387 64.204 68.0986 64.4441L66.4402 66.1025C66.2001 66.3426 66.2001 66.7328 66.4402 66.9729L67.4532 67.986C67.6483 68.1736 67.6858 68.4737 67.5508 68.7063C67.1906 69.3367 66.9129 70.0045 66.7178 70.7099C66.6503 70.9725 66.4102 71.1526 66.14 71.1526H64.7218C64.3841 71.1526 64.1064 71.4303 64.1064 71.768V74.1167C64.1064 74.4544 64.3841 74.732 64.7218 74.732H66.155C66.4252 74.732 66.6653 74.9121 66.7328 75.1673C66.9204 75.8651 67.2056 76.5405 67.5658 77.1708C67.7008 77.4034 67.6633 77.6961 67.4682 77.8912L66.4552 78.9042C66.2151 79.1444 66.2151 79.5346 66.4552 79.7747L68.1136 81.4331C68.3537 81.6732 68.7439 81.6732 68.984 81.4331L69.9971 80.42C70.1847 80.2324 70.4848 80.1874 70.7175 80.3225C71.3478 80.6827 72.0156 80.9603 72.721 81.1554C72.9837 81.223 73.1637 81.4631 73.1562 81.7332V83.1665C73.1562 83.5042 73.4339 83.7818 73.7716 83.7818H76.1203C76.458 83.7818 76.7356 83.5042 76.7356 83.1665V81.7332C76.7356 81.4631 76.9157 81.2305 77.1709 81.1554C77.8687 80.9678 78.5441 80.6827 79.1744 80.3225C79.407 80.1874 79.7072 80.2324 79.8948 80.42L80.9078 81.4331C81.148 81.6732 81.5382 81.6732 81.7783 81.4331L83.4367 79.7747C83.6768 79.5346 83.6768 79.1444 83.4367 78.9042L82.4236 77.8912C82.2285 77.7036 82.191 77.4034 82.3261 77.1708C82.6863 76.5405 82.9639 75.8726 83.159 75.1673C83.2266 74.9046 83.4667 74.7245 83.7368 74.732H85.1701C85.5078 74.732 85.7854 74.4544 85.7854 74.1167V71.768C85.7704 71.4228 85.4928 71.1526 85.1551 71.1526Z" fill="#76D1F4"/>
<path id="Vector_32" d="M74.9421 77.7186C72.3007 77.7186 70.1621 75.58 70.1621 72.9386C70.1621 70.2972 72.3007 68.1586 74.9421 68.1586C77.5835 68.1586 79.7222 70.2972 79.7222 72.9386C79.7222 75.58 77.576 77.7186 74.9421 77.7186Z" fill="#3FAADB"/>
<path id="Vector_33" d="M64.5792 56.5799C64.5792 58.3958 63.1084 59.8741 61.285 59.8741C59.469 59.8741 57.9907 58.4034 57.9907 56.5799C57.9907 54.7564 59.469 53.2856 61.285 53.2856C63.1009 53.2856 64.5792 54.7639 64.5792 56.5799Z" fill="#F8D0B5"/>
<path id="Vector_34" d="M58.1933 60.2644H64.3691C66.185 60.2644 67.6708 61.7502 67.6708 63.5662V64.8869L66.4477 66.11C66.2676 66.2976 66.215 66.5752 66.3276 66.8079C64.8343 67.8059 63.0709 68.3387 61.2774 68.3387C58.8837 68.3387 56.5874 67.4007 54.884 65.7198V63.5737C54.884 61.7502 56.3773 60.2644 58.1933 60.2644Z" fill="#3F70B7"/>
<path id="Vector_35" d="M76.1128 84.7349H73.7641C72.8936 84.7349 72.1807 84.0295 72.1807 83.1515V82.0034C71.5879 81.8233 71.0176 81.5907 70.4773 81.2981L69.6594 82.116C69.0441 82.7313 68.0385 82.7313 67.4232 82.116L65.7648 80.4576C65.1495 79.8423 65.1495 78.8368 65.7648 78.2214L66.5827 77.4035C66.2901 76.8632 66.0575 76.2929 65.8774 75.7001H64.7218C63.8513 75.7001 63.1384 74.9872 63.1384 74.1168V71.768C63.1384 70.8976 63.8438 70.1847 64.7218 70.1847H65.8699C66.05 69.5919 66.2826 69.0216 66.5752 68.4813L65.7573 67.6633C65.142 67.048 65.142 66.0425 65.7573 65.4272L67.4157 63.7688C67.7158 63.4686 68.1136 63.3035 68.5338 63.3035C68.954 63.3035 69.3517 63.4686 69.6519 63.7688L70.4698 64.5867C71.0101 64.2941 71.5879 64.0614 72.1732 63.8813V62.7332C72.1732 61.8628 72.8786 61.1499 73.7565 61.1499H76.1053C76.9757 61.1499 77.6886 61.8553 77.6886 62.7332V63.8813C78.2814 64.0614 78.8517 64.2941 79.392 64.5867L80.21 63.7688C80.8253 63.1535 81.8308 63.1535 82.4461 63.7688L84.1045 65.4272C84.7199 66.0425 84.7199 67.048 84.1045 67.6633L83.2866 68.4813C83.5793 69.0216 83.8119 69.5919 83.992 70.1847H85.1401C86.0105 70.1847 86.7234 70.8901 86.7234 71.768V74.1168C86.7234 74.9872 86.018 75.7001 85.1401 75.7001H83.992C83.8119 76.2929 83.5793 76.8632 83.2866 77.4035L84.1045 78.2214C84.4047 78.5216 84.5698 78.9193 84.5698 79.3395C84.5698 79.7598 84.4047 80.165 84.1045 80.4576L82.4461 82.116C81.8308 82.7313 80.8253 82.7313 80.21 82.116L79.392 81.2981C78.8517 81.5907 78.2814 81.8233 77.6886 82.0034V83.1515C77.6961 84.0295 76.9832 84.7349 76.1128 84.7349ZM74.1167 82.7989H75.7526V81.7258C75.7526 81.0204 76.2254 80.3976 76.9082 80.2175C77.5235 80.0524 78.1239 79.8048 78.6792 79.4821C79.2945 79.1294 80.0674 79.2345 80.5702 79.7372L81.3356 80.5026L82.4912 79.347L81.7333 78.5891C81.2305 78.0864 81.1329 77.3135 81.4856 76.7056C81.8083 76.1503 82.0484 75.55 82.221 74.9347C82.4086 74.2518 83.024 73.7791 83.7293 73.7791H84.8024V72.1432H83.7293C83.024 72.1432 82.4011 71.6705 82.221 70.9876C82.0559 70.3648 81.8083 69.772 81.4856 69.2167C81.1329 68.6013 81.238 67.8284 81.7333 67.3257L82.4912 66.5678L81.3356 65.4122L80.5702 66.1701C80.0674 66.6653 79.2945 66.7704 78.6867 66.4252C78.1314 66.1025 77.531 65.8549 76.9157 65.6898C76.2329 65.5022 75.7601 64.8869 75.7601 64.1815V63.1084H74.1242V64.1815C74.1242 64.8869 73.6515 65.5097 72.9686 65.6898C72.3458 65.8549 71.753 66.1025 71.1977 66.4252C70.5824 66.7779 69.8095 66.6728 69.3142 66.1776L68.5488 65.4122L67.3932 66.5678L68.1511 67.3257C68.6539 67.8284 68.7514 68.6013 68.3987 69.2167C68.0835 69.772 67.8359 70.3648 67.6633 70.9876C67.4757 71.6705 66.8604 72.1432 66.1475 72.1432H65.0745V73.7791H66.1475C66.8529 73.7791 67.4757 74.2518 67.6633 74.9347C67.8284 75.5575 68.076 76.1503 68.3987 76.7056C68.7514 77.321 68.6463 78.0939 68.1436 78.5891L67.3857 79.347L68.5413 80.5026L69.2992 79.7447C69.802 79.242 70.5749 79.1444 71.1902 79.4896C71.7455 79.8123 72.3458 80.0599 72.9611 80.225C73.644 80.4126 74.1167 81.0279 74.1167 81.7333V82.7989Z" fill="black"/>
<path id="Vector_36" d="M63.1835 77.7336H59.379C58.2984 77.7336 57.4205 76.8557 57.4205 75.7751V73.4564C56.2048 73.1262 55.0417 72.646 53.9536 72.0156L52.3178 73.659C51.5524 74.4244 50.3067 74.4244 49.5413 73.659L46.8549 70.9726C46.4872 70.6049 46.2771 70.1021 46.2771 69.5843C46.2771 69.0591 46.4797 68.5638 46.8549 68.1961L48.4907 66.5602C47.8679 65.4722 47.3801 64.309 47.05 63.0934H44.7312C43.6507 63.0934 42.7727 62.2154 42.7727 61.1274V57.3228C42.7727 56.2423 43.6507 55.3643 44.7312 55.3643H47.05C47.3801 54.1487 47.8604 52.9855 48.4907 51.8975L46.8474 50.2616C46.082 49.4962 46.082 48.2505 46.8474 47.4851L49.5338 44.7987C49.9015 44.431 50.3967 44.2209 50.922 44.2209C51.4473 44.2209 51.9426 44.4235 52.3103 44.7987L53.9461 46.4346C55.0342 45.8118 56.1973 45.324 57.4129 44.9938L57.4054 42.6751C57.4054 41.5945 58.2834 40.7166 59.3715 40.7166H63.176C64.2566 40.7166 65.1345 41.5945 65.1345 42.6751V44.9938C66.3502 45.324 67.5133 45.8042 68.6014 46.4346L70.2372 44.7912C71.0026 44.0258 72.2483 44.0258 73.0137 44.7912L75.7001 47.4776C76.0678 47.8453 76.2779 48.3481 76.2779 48.8659C76.2779 49.3836 76.0753 49.8864 75.7001 50.2541L74.0643 51.89C74.6871 52.978 75.1748 54.1412 75.505 55.3568H77.8238C78.9043 55.3568 79.7823 56.2348 79.7898 57.3153V61.1198C79.7898 62.2004 78.9118 63.0784 77.8238 63.0859H76.1879C74.8972 63.0859 74.8972 61.1499 76.1879 61.1499H77.8238L77.8463 57.3228L75.505 57.3003C74.6346 57.3003 73.8617 56.715 73.6365 55.8746C73.3514 54.824 72.9312 53.811 72.3834 52.8655C71.9481 52.1076 72.0757 51.1471 72.6985 50.5317L74.3344 48.8884L71.648 46.1644L69.9746 47.8003C69.3593 48.4156 68.3988 48.5432 67.6409 48.1155C66.6954 47.5677 65.6823 47.155 64.6318 46.8623C63.7913 46.6297 63.206 45.8643 63.206 44.9938V42.6751L59.379 42.6526L59.3565 44.9938C59.3565 45.8643 58.7712 46.6297 57.9307 46.8623C56.8802 47.1475 55.8671 47.5677 54.9216 48.1155C54.1637 48.5507 53.2032 48.4231 52.5879 47.8003L50.9445 46.1644L48.2206 48.8509L49.8565 50.5242C50.4718 51.1396 50.5993 52.1001 50.1716 52.858C49.6313 53.8035 49.2111 54.8165 48.9185 55.8671C48.6858 56.7075 47.9204 57.2928 47.05 57.2928H44.7312L44.7087 61.1198L47.05 61.1424C47.9204 61.1424 48.6858 61.7277 48.9185 62.5681C49.2036 63.6187 49.6238 64.6317 50.1716 65.5772C50.6069 66.3351 50.4793 67.2881 49.8565 67.9109L48.2206 69.5543L50.907 72.2783L52.5804 70.6349C53.1957 70.0196 54.1562 69.892 54.9141 70.3197C55.8596 70.86 56.8727 71.2802 57.9232 71.5729C58.7637 71.8055 59.349 72.5709 59.349 73.4414V75.7601L63.131 75.7826C63.131 75.7751 63.131 75.7676 63.131 75.7601V74.2143C63.131 72.9236 65.067 72.9236 65.067 74.2143V75.7751C65.082 76.8707 64.2491 77.7336 63.1835 77.7336Z" fill="black"/>
<path id="Vector_37" d="M61.285 69.3067C55.7246 69.3067 51.1997 64.7818 51.1997 59.2213C51.1997 53.6609 55.7246 49.136 61.285 49.136C66.8455 49.136 71.3704 53.6609 71.3704 59.2213C71.3704 61.2549 70.7701 63.2134 69.6295 64.8868C69.3293 65.3296 68.729 65.4421 68.2863 65.142C67.8435 64.8418 67.731 64.234 68.0311 63.7987C68.9466 62.448 69.4419 60.8572 69.4344 59.2213C69.4344 54.7264 65.7799 51.072 61.285 51.072C56.7902 51.072 53.1357 54.7264 53.1357 59.2213C53.1357 63.7162 56.7902 67.3706 61.285 67.3706C62.8984 67.3706 64.4592 66.8979 65.8024 66.0049C66.8755 65.3145 67.9261 66.8904 66.8755 67.6183C65.2171 68.7213 63.2736 69.3142 61.285 69.3067ZM74.9423 78.6866C71.7756 78.6866 69.1942 76.1053 69.1942 72.9386C69.1942 69.7719 71.7756 67.1905 74.9423 67.1905C78.1089 67.1905 80.6903 69.7719 80.6903 72.9386C80.6903 76.1053 78.1089 78.6866 74.9423 78.6866ZM74.9423 69.1266C72.8412 69.1266 71.1303 70.8375 71.1303 72.9386C71.1303 75.0397 72.8412 76.7506 74.9423 76.7506C77.0434 76.7506 78.7543 75.0397 78.7543 72.9386C78.7468 70.8375 77.0434 69.1266 74.9423 69.1266Z" fill="black"/>
<path id="Vector_38" d="M61.285 60.8421C58.9362 60.8421 57.0227 58.9286 57.0227 56.5799C57.0227 54.2311 58.9362 52.3176 61.285 52.3176C63.6337 52.3176 65.5472 54.2311 65.5472 56.5799C65.5472 58.9286 63.6337 60.8421 61.285 60.8421ZM61.285 54.2612C60.0018 54.2612 58.9587 55.3042 58.9587 56.5874C58.9587 57.8706 60.0018 58.9136 61.285 58.9136C62.5681 58.9136 63.6112 57.8706 63.6112 56.5874C63.6112 55.3042 62.5606 54.2612 61.285 54.2612Z" fill="black"/>
<path id="Vector_39" d="M54.884 66.3876C54.3512 66.3876 53.916 65.9524 53.916 65.4196V63.5737C53.916 61.2174 55.837 59.2964 58.1933 59.2964H64.369C66.7253 59.2964 68.6463 61.2174 68.6463 63.5737V64.7143C68.6463 66.0049 66.7103 66.0049 66.7103 64.7143V63.5737C66.7103 62.283 65.6672 61.2399 64.3765 61.2399H58.2008C56.9101 61.2399 55.867 62.283 55.867 63.5737V65.4196C55.8595 65.9524 55.4243 66.3876 54.884 66.3876Z" fill="black"/>
</g>
</svg>
