<svg width="65" height="68" viewBox="0 0 65 68" fill="none" xmlns="http://www.w3.org/2000/svg">
<g id="Group">
<g id="Group_2">
<g id="Clip path group">
<mask id="mask0_553_5293" style="mask-type:luminance" maskUnits="userSpaceOnUse" x="0" y="0" width="65" height="68">
<g id="SVGID_2_">
<path id="Vector" d="M65 0H0V67.549H65V0Z" fill="white"/>
</g>
</mask>
<g mask="url(#mask0_553_5293)">
<path id="Vector_2" d="M56.3816 66.9191H63.923C64.5155 66.9191 65.0003 66.4328 65.0003 65.8383V51.0136C65.0003 50.4192 64.5155 49.9328 63.923 49.9328H56.3816C55.1965 49.9328 54.2269 50.9055 54.2269 52.0944H51.3898C49.8816 52.0944 48.3912 51.8062 46.9907 51.2658L42.5556 49.5185C42.4838 49.4825 42.394 49.4645 42.3222 49.4464L31.7282 47.9153C29.8429 47.6451 28.0832 48.9061 27.7061 50.7614C27.347 52.6167 28.4782 54.4541 30.2738 54.9404L34.7628 56.1653L32.7517 56.8318H27.5445L14.9934 52.6348C13.8981 52.2565 12.6771 52.5447 11.8512 53.3733C11.1509 54.0758 10.8456 55.0305 10.9893 56.0032C11.1329 56.9759 11.7255 57.8045 12.5874 58.2548L25.9285 65.352C26.0183 65.406 26.126 65.4421 26.2158 65.4601L35.463 67.3154C35.5349 67.3334 35.6067 67.3334 35.6785 67.3334C35.7683 67.3334 35.8581 67.3334 35.9299 67.2974L44.9976 65.0638C45.9313 64.8296 46.9009 64.7215 47.8705 64.7215H54.2089C54.2089 65.9644 55.1785 66.9191 56.3816 66.9191ZM56.3816 52.0944H62.8456V64.7576H56.3816V52.0944ZM47.8885 62.596C46.7393 62.596 45.6081 62.7401 44.5128 63.0103L35.6785 65.1899L26.8084 63.4066L13.5929 56.3815C13.3415 56.2374 13.1619 56.0032 13.126 55.715C13.0901 55.4268 13.1799 55.1386 13.3774 54.9224C13.6288 54.6702 13.9879 54.5802 14.3111 54.6883L27.0238 58.9393C27.1316 58.9754 27.2572 58.9934 27.365 58.9934H32.9133C33.039 58.9934 33.1467 58.9754 33.2545 58.9393L38.8028 57.084C39.2517 56.9399 39.557 56.5076 39.539 56.0212C39.5211 55.5529 39.1979 55.1386 38.749 55.0125L30.8304 52.8509C30.1122 52.6528 29.6633 51.9142 29.807 51.1937C29.9506 50.4552 30.6509 49.9328 31.405 50.0409L41.8912 51.536L46.2186 53.2472C47.8705 53.9137 49.6302 54.2379 51.4078 54.2379H54.2269V62.578L47.8885 62.596Z" fill="white"/>
</g>
</g>
</g>
<path id="Vector_3" d="M58.5358 59.805H60.6905V61.9666H58.5358V59.805ZM31.6021 16.5737C22.1035 16.5737 14.3645 24.3373 14.3645 33.8662C14.3645 40.2969 17.8838 46.1511 23.5579 49.1593L24.5634 47.2499C19.6076 44.638 16.5012 39.4683 16.5192 33.8662C16.5192 25.5262 23.2885 18.7352 31.6021 18.7352C39.9156 18.7352 46.6849 25.5262 46.6849 33.8662C46.6849 38.1713 44.8534 42.2783 41.6573 45.1424L43.0938 46.7456C46.7388 43.4672 48.8396 38.7658 48.8396 33.8482C48.8396 24.3193 41.1007 16.5557 31.6021 16.5557V16.5737Z" fill="white"/>
<path id="Vector_4" d="M26.7543 36.4596V37.1081C26.7543 39.3057 28.4063 41.107 30.5251 41.3772V43.0524H32.6798V41.3772C34.7985 41.107 36.4505 39.3057 36.4505 37.1081C36.4505 34.7124 34.5292 32.785 32.1411 32.785H31.0637C29.8787 32.785 28.909 31.8123 28.909 30.6234C28.909 29.4345 29.8787 28.4618 31.0637 28.4618H32.1411C33.3262 28.4618 34.2958 29.4345 34.2958 30.6234V31.2719H36.4505V30.6234C36.4505 28.4258 34.7985 26.6245 32.6798 26.3543V24.6791H30.5251V26.3543C28.4063 26.6245 26.7543 28.4258 26.7543 30.6234C26.7543 33.0191 28.6756 34.9465 31.0637 34.9465H32.1411C33.3262 34.9465 34.2958 35.9193 34.2958 37.1081C34.2958 38.297 33.3262 39.2697 32.1411 39.2697H31.0637C29.8787 39.2697 28.909 38.297 28.909 37.1081V36.4596H26.7543ZM18.0099 9.00772C17.5969 8.84561 17.148 8.93567 16.8427 9.24189L15.3165 10.773L4.65075 0.0732422L3.12451 1.60435L14.5624 13.0787C14.9753 13.493 15.6756 13.493 16.0886 13.0787L16.5375 12.6284V16.5912H12.5693L13.0182 16.1409C13.2157 15.9428 13.3234 15.6726 13.3234 15.3663C13.3234 15.0601 13.1977 14.8079 13.0182 14.5918L1.59826 3.13546L0.0720215 4.66657L10.7378 15.3663L9.21152 16.8974C8.90627 17.2037 8.8165 17.672 8.9781 18.0683C9.1397 18.4646 9.53473 18.7348 9.96567 18.7348H17.5969C18.1894 18.7348 18.6742 18.2484 18.6742 17.654V9.99844C18.6742 9.56613 18.4228 9.16984 18.0099 9.00772ZM46.38 18.4286L59.2005 5.56723L58.6438 8.68349L60.7626 9.06176L61.9118 2.55905C61.9836 2.2168 61.8579 1.85654 61.6066 1.60435C61.3552 1.35217 60.9961 1.24409 60.6549 1.29813L54.1729 2.45097L54.5499 4.57651L57.6563 4.0181L44.8358 16.8794L46.38 18.4286Z" fill="white"/>
</g>
</svg>
