<svg width="66" height="66" viewBox="0 0 66 66" fill="none" xmlns="http://www.w3.org/2000/svg">
<g id="Group">
<g id="Group_2">
<g id="Clip path group">
<mask id="mask0_553_5319" style="mask-type:luminance" maskUnits="userSpaceOnUse" x="0" y="0" width="66" height="66">
<g id="SVGID_2_">
<path id="Vector" d="M66 0H0V66H66V0Z" fill="white"/>
</g>
</mask>
<g mask="url(#mask0_553_5319)">
<path id="Vector_2" d="M46.2 26.4C45.4609 26.4 44.7219 26.4516 44 26.5375V3.3C44 1.47813 42.5219 0 40.7 0H9.71094C8.83438 0 7.99219 0.34375 7.37344 0.979687L0.979687 7.37344C0.34375 7.99219 0 8.83438 0 9.71094V56.1C0 57.9219 1.47813 59.4 3.3 59.4H31.4875C35.9734 64.3844 42.6594 66.7734 49.2937 65.725C55.9109 64.6766 61.5656 60.3625 64.2984 54.2438C67.0312 48.125 66.4812 41.0266 62.8203 35.4062C59.1594 29.7859 52.9031 26.4 46.2 26.4ZM7.7 3.74687V6.6C7.7 7.20156 7.20156 7.7 6.6 7.7H3.74687L7.7 3.74687ZM3.3 57.2C2.69844 57.2 2.2 56.7016 2.2 56.1V9.9H6.6C8.42188 9.9 9.9 8.42188 9.9 6.6V2.2H40.7C41.3016 2.2 41.8 2.69844 41.8 3.3V26.9156C40.3219 27.2594 38.8953 27.7578 37.5375 28.4281C40.0641 21.6219 37.5031 13.9734 31.3844 10.0719C25.2656 6.17031 17.2563 7.0125 12.1344 12.1516C6.99531 17.2906 6.13594 25.3 10.0547 31.4016C13.9734 37.5031 21.6047 40.0641 28.4109 37.5547C25.3 43.8797 25.7984 51.3734 29.7344 57.2172H3.3V57.2ZM30.7656 33.8422C25.8672 37.3656 19.1984 37.0906 14.5922 33.1719L23.5641 24.2H36.2656C36.0766 26.5719 35.2344 28.8406 33.8422 30.7656C32.7078 31.6766 31.6766 32.7078 30.7656 33.8422ZM24.2 9.95156C30.6109 10.5016 35.6984 15.5891 36.2484 22H24.2V9.95156ZM22 21.3125L11.8422 16.2422C14.025 12.65 17.8062 10.3125 22 9.95156V21.3125ZM10.8453 18.2016L21.2437 23.3922L13.0281 31.6078C9.86563 27.8953 9.02344 22.7391 10.8453 18.2016ZM46.2 63.8C39.0844 63.8 32.6562 59.5203 29.9406 52.9375C27.2078 46.3547 28.7203 38.7922 33.7562 33.7562C38.7922 28.7203 46.3547 27.225 52.9375 29.9406C59.5203 32.6562 63.8 39.0844 63.8 46.2C63.7828 55.9109 55.9109 63.7828 46.2 63.8Z" fill="white"/>
</g>
</g>
<g id="Clip path group_2">
<mask id="mask1_553_5319" style="mask-type:luminance" maskUnits="userSpaceOnUse" x="0" y="0" width="66" height="66">
<g id="SVGID_2__2">
<path id="Vector_3" d="M66 0H0V66H66V0Z" fill="white"/>
</g>
</mask>
<g mask="url(#mask1_553_5319)">
<path id="Vector_4" d="M46.1999 30.8008C39.978 30.8008 34.3577 34.5477 31.9686 40.3055C29.5796 46.0633 30.903 52.6805 35.303 57.0805C39.703 61.4805 46.3374 62.8039 52.078 60.4148C57.8358 58.0258 61.5827 52.4227 61.5827 46.1836C61.5827 37.693 54.7077 30.818 46.1999 30.8008ZM46.1999 59.4008C40.8546 59.4008 36.0421 56.1867 33.9967 51.2539C31.9514 46.3211 33.0858 40.6492 36.8499 36.868C40.6311 33.0867 46.303 31.9695 51.2358 34.0148C56.1686 36.0602 59.3827 40.8727 59.3827 46.218C59.3999 53.4883 53.4874 59.4008 46.1999 59.4008Z" fill="white"/>
</g>
</g>
<g id="Clip path group_3">
<mask id="mask2_553_5319" style="mask-type:luminance" maskUnits="userSpaceOnUse" x="0" y="0" width="66" height="66">
<g id="SVGID_2__3">
<path id="Vector_5" d="M66 0H0V66H66V0Z" fill="white"/>
</g>
</mask>
<g mask="url(#mask2_553_5319)">
<path id="Vector_6" d="M49.5 41.8002C49.5 42.4018 49.9984 42.9002 50.5999 42.9002C51.2015 42.9002 51.6999 42.4018 51.6999 41.8002C51.6999 39.1877 49.8609 36.9361 47.3 36.4033V36.3002C47.3 35.6986 46.8015 35.2002 46.1999 35.2002C45.5984 35.2002 45.0999 35.6986 45.0999 36.3002V36.4033C42.539 36.9189 40.7 39.1705 40.7 41.8002C40.7 44.4127 42.539 46.6643 45.0999 47.1971V53.7111C43.7937 53.2471 42.9 52.0096 42.9 50.6174C42.9 50.0158 42.4015 49.5174 41.7999 49.5174C41.1984 49.5174 40.7 50.0158 40.7 50.6174C40.7 53.2299 42.539 55.4814 45.0999 56.0143V56.1174C45.0999 56.7189 45.5984 57.2174 46.1999 57.2174C46.8015 57.2174 47.3 56.7189 47.3 56.1174V56.0143C49.8609 55.4986 51.6999 53.2471 51.6999 50.6174C51.6999 48.0049 49.8609 45.7533 47.3 45.2205V38.7064C48.6062 39.1705 49.5 40.408 49.5 41.8002ZM42.9 41.8002C42.9 40.408 43.7937 39.1705 45.0999 38.7064V44.8939C43.7937 44.4299 42.9 43.1924 42.9 41.8002ZM49.5 50.6002C49.5 51.9924 48.6062 53.2299 47.3 53.6939V47.5064C48.6062 47.9705 49.5 49.208 49.5 50.6002ZM23.0999 50.6002H18.7V42.9002C18.7 42.2986 18.2015 41.8002 17.6 41.8002C16.9984 41.8002 16.5 42.2986 16.5 42.9002V50.6002H14.3V47.3002C14.3 46.6986 13.8015 46.2002 13.2 46.2002C12.5984 46.2002 12.1 46.6986 12.1 47.3002V50.6002H9.89995V40.7002C9.89995 40.0986 9.40151 39.6002 8.79995 39.6002C8.19839 39.6002 7.69995 40.0986 7.69995 40.7002V51.7002C7.69995 52.3018 8.19839 52.8002 8.79995 52.8002H23.0999C23.7015 52.8002 24.2 52.3018 24.2 51.7002C24.2 51.0986 23.7015 50.6002 23.0999 50.6002ZM50.5999 24.2002C51.2015 24.2002 51.6999 23.7018 51.6999 23.1002V10.3643L53.1265 11.7908C53.5562 12.2033 54.2437 12.2033 54.6734 11.7736C55.1031 11.3439 55.1031 10.6564 54.6906 10.2268L51.3906 6.92676C50.9609 6.49707 50.2562 6.49707 49.8265 6.92676L46.5265 10.2268C46.114 10.6564 46.114 11.3439 46.5437 11.7736C46.9734 12.2033 47.6609 12.2033 48.0906 11.7908L49.5171 10.3643V23.1002C49.5 23.7018 49.9984 24.2002 50.5999 24.2002ZM55.7218 25.5236C55.8765 25.6096 56.0656 25.6611 56.2375 25.6611C56.65 25.6611 57.0109 25.4377 57.2 25.0768L63.25 13.8533L63.8343 15.7783C63.9718 16.2424 64.4015 16.5689 64.8828 16.5689C64.9859 16.5689 65.089 16.5518 65.1921 16.5174C65.7765 16.3455 66.1031 15.7268 65.9312 15.1424L64.5906 10.6736C64.4187 10.0893 63.7999 9.7627 63.2156 9.93457L58.7468 11.2752C58.1796 11.4643 57.8531 12.0658 58.025 12.633C58.1968 13.2002 58.7984 13.5439 59.3656 13.3721L61.2906 12.7877L55.2406 24.0111C55 24.5611 55.189 25.2314 55.7218 25.5236Z" fill="white"/>
</g>
</g>
</g>
</g>
</svg>
