<svg width="68" height="59" viewBox="0 0 68 59" fill="none" xmlns="http://www.w3.org/2000/svg">
<g id="Group">
<path id="Vector" d="M59.4406 59H7.53908C3.36079 59 0 55.6504 0 51.4452V7.55477C0 3.34958 3.34263 0 7.53908 0H59.586C63.7643 0 67.125 3.34958 67.125 7.55477V51.5909C66.9615 55.6504 63.4736 59 59.4406 59ZM7.53908 1.40173C4.17828 1.40173 1.39882 4.18698 1.39882 7.55477V51.4452C1.39882 54.7948 4.19645 57.5983 7.53908 57.5983H59.4406C62.7833 57.5983 65.5809 54.9404 65.7262 51.5909V7.55477C65.7262 4.20518 62.9286 1.40173 59.586 1.40173H7.53908Z" fill="white"/>
<path id="Vector_2" d="M7.39383 9.50242C5.86784 9.50242 4.59619 8.24633 4.59619 6.69896C4.59619 5.16981 5.84968 3.89551 7.39383 3.89551C8.91981 3.89551 10.1915 5.1516 10.1915 6.69896C10.1915 8.24633 8.93797 9.50242 7.39383 9.50242ZM7.39383 5.31544C6.55817 5.31544 5.99501 5.87977 5.99501 6.71717C5.99501 7.55456 6.55817 8.1189 7.39383 8.1189C8.22948 8.1189 8.79264 7.55456 8.79264 6.71717C8.79264 5.87977 8.22948 5.31544 7.39383 5.31544ZM14.9329 9.50242C13.4069 9.50242 12.1353 8.24633 12.1353 6.69896C12.1353 5.16981 13.3888 3.89551 14.9329 3.89551C16.4589 3.89551 17.7305 5.1516 17.7305 6.69896C17.7124 8.24633 16.4589 9.50242 14.9329 9.50242ZM14.9329 5.31544C14.0972 5.31544 13.5341 5.87977 13.5341 6.71717C13.5341 7.55456 14.0972 8.1189 14.9329 8.1189C15.7686 8.1189 16.3317 7.55456 16.3317 6.71717C16.3317 5.87977 15.7686 5.31544 14.9329 5.31544ZM22.3266 9.50242C20.8007 9.50242 19.529 8.24633 19.529 6.69896C19.529 5.16981 20.7825 3.89551 22.3266 3.89551C23.8526 3.89551 25.1243 5.1516 25.1243 6.69896C25.1061 8.24633 23.8526 9.50242 22.3266 9.50242ZM22.3266 5.31544C21.491 5.31544 20.9278 5.87977 20.9278 6.71717C20.9278 7.55456 21.491 8.1189 22.3266 8.1189C23.1623 8.1189 23.7255 7.55456 23.7255 6.71717C23.7255 5.87977 23.1623 5.31544 22.3266 5.31544ZM59.5679 9.50242H29.7204C28.1762 9.50242 26.9228 8.24633 26.9228 6.69896C26.9228 5.16981 28.1762 3.89551 29.7204 3.89551H59.586C61.112 3.89551 62.3837 5.1516 62.3837 6.69896C62.3655 8.24633 61.112 9.50242 59.5679 9.50242ZM29.7204 5.31544C29.0301 5.31544 28.3216 6.0072 28.3216 6.71717C28.3216 7.40893 29.0119 8.1189 29.7204 8.1189H59.586C60.2764 8.1189 60.9849 7.42713 60.9849 6.71717C60.9849 5.87977 60.2945 5.31544 59.586 5.31544H29.7204ZM11.8628 37.4642H6.976C6.55817 37.4642 6.28567 37.1911 6.28567 36.7724V31.8755C6.28567 31.4568 6.55817 31.1837 6.976 31.1837H11.8628C12.2806 31.1837 12.5531 31.4568 12.5531 31.8755V36.7724C12.5531 37.1911 12.2806 37.4642 11.8628 37.4642ZM7.66632 36.0624H11.1543V32.5672H7.66632V36.0624ZM19.8197 37.4642H14.9329C14.5151 37.4642 14.2426 37.1911 14.2426 36.7724V26.8511C14.2426 26.4324 14.5151 26.1593 14.9329 26.1593H19.8197C20.2375 26.1593 20.51 26.4324 20.51 26.8511V36.7724C20.51 37.1911 20.2375 37.4642 19.8197 37.4642ZM15.6232 36.0624H19.1112V27.5246H15.6232V36.0624ZM27.6313 37.4642H22.7445C22.3266 37.4642 22.0542 37.1911 22.0542 36.7724V29.6363C22.0542 29.2176 22.3266 28.9446 22.7445 28.9446H27.6313C28.0491 28.9446 28.3216 29.2176 28.3216 29.6363V36.7724C28.3216 37.1911 28.0491 37.4642 27.6313 37.4642ZM23.4348 36.0624H26.9228V30.3281H23.4348V36.0624ZM35.57 37.4642H30.7014C30.2836 37.4642 30.0111 37.1911 30.0111 36.7724V23.6289C30.0111 23.2102 30.2836 22.9372 30.7014 22.9372H35.5882C36.006 22.9372 36.2785 23.2102 36.2785 23.6289V36.7724C36.2785 37.1911 35.9878 37.4642 35.57 37.4642ZM31.3917 36.0624H34.8797V24.3207H31.3917V36.0624ZM27.2134 22.0816C26.9409 22.0816 26.7956 21.9359 26.6503 21.8085C26.5049 21.5354 26.5049 21.1167 26.7956 20.8255L30.7014 18.3133C30.9739 18.1676 31.3917 18.1676 31.6824 18.4589C31.8277 18.732 31.8277 19.1507 31.537 19.4419L27.6313 21.9541C27.4859 22.0816 27.3406 22.0816 27.2134 22.0816ZM11.4449 25.0307C11.1724 25.0307 11.0271 24.885 10.8818 24.7576C10.7365 24.4845 10.7365 24.0658 11.1543 23.7746L15.0601 21.3898C15.3326 21.2442 15.7504 21.2442 16.0411 21.6629C16.1864 21.9359 16.1864 22.3546 15.7686 22.6459L11.8628 25.0307H11.4449ZM23.017 22.7915L19.3837 22.0998C18.9659 21.9541 18.8205 21.6811 18.8205 21.2624C18.9659 20.8437 19.2383 20.698 19.6562 20.698L23.1441 21.3898C23.562 21.5354 23.7073 21.8085 23.7073 22.2272C23.5801 22.5003 23.3076 22.7915 23.017 22.7915Z" fill="white"/>
<path id="Vector_3" d="M33.0627 20.698C31.3914 20.698 29.9926 19.2962 29.9926 17.6214C29.9926 15.9466 31.3914 14.5449 33.0627 14.5449C34.7341 14.5449 36.1329 15.9466 36.1329 17.6214C36.1329 19.2962 34.7341 20.698 33.0627 20.698ZM33.0627 15.9466C32.0818 15.9466 31.3914 16.6384 31.3914 17.6214C31.3914 18.6045 32.0818 19.2962 33.0627 19.2962C34.0437 19.2962 34.7341 18.6045 34.7341 17.6214C34.7341 16.6384 34.0437 15.9466 33.0627 15.9466ZM25.2512 25.7223C23.5799 25.7223 22.181 24.3206 22.181 22.6458C22.181 20.971 23.5799 19.5693 25.2512 19.5693C26.9225 19.5693 28.3213 20.971 28.3213 22.6458C28.3213 24.3206 26.9225 25.7223 25.2512 25.7223ZM25.2512 20.971C24.2702 20.971 23.5799 21.6628 23.5799 22.6458C23.5799 23.6288 24.2702 24.3206 25.2512 24.3206C26.2322 24.3206 26.9225 23.6288 26.9225 22.6458C26.9225 21.6628 26.2322 20.971 25.2512 20.971ZM17.2943 23.9019C15.623 23.9019 14.2241 22.5002 14.2241 20.8254C14.2241 19.1506 15.623 17.7489 17.2943 17.7489C18.9656 17.7489 20.3644 19.1506 20.3644 20.8254C20.3644 22.5002 18.9656 23.9019 17.2943 23.9019ZM17.2943 19.1506C16.3133 19.1506 15.623 19.8424 15.623 20.8254C15.623 21.8084 16.3133 22.5002 17.2943 22.5002C18.2753 22.5002 18.9656 21.8084 18.9656 20.8254C18.9656 19.8606 18.2753 19.1506 17.2943 19.1506ZM9.35553 28.5258C7.68422 28.5258 6.2854 27.1241 6.2854 25.4493C6.2854 23.7745 7.68422 22.3728 9.35553 22.3728C11.0268 22.3728 12.4257 23.7745 12.4257 25.4493C12.4257 27.1241 11.0268 28.5258 9.35553 28.5258ZM9.35553 23.7745C8.37454 23.7745 7.68422 24.4662 7.68422 25.4493C7.68422 26.4323 8.37454 27.1241 9.35553 27.1241C10.3365 27.1241 11.0268 26.4323 11.0268 25.4493C11.0268 24.4662 10.3184 23.7745 9.35553 23.7745ZM44.2351 23.3558C42.2731 23.3558 40.6018 21.681 40.6018 19.7149C40.6018 17.7489 42.2731 16.0741 44.2351 16.0741C46.1971 16.0741 47.8684 17.7489 47.8684 19.7149C47.8502 21.6628 46.1789 23.3558 44.2351 23.3558ZM44.2351 17.4758C42.9816 17.4758 42.0006 18.4588 42.0006 19.7149C42.0006 20.971 42.9816 21.9541 44.2351 21.9541C45.4886 21.9541 46.4696 20.971 46.4696 19.7149C46.4514 18.4588 45.4886 17.4758 44.2351 17.4758ZM44.2351 33.1315C42.2731 33.1315 40.6018 31.4567 40.6018 29.4906C40.6018 27.5246 42.2731 25.8498 44.2351 25.8498C46.1971 25.8498 47.8684 27.5246 47.8684 29.4906C47.8502 31.4567 46.1789 33.1315 44.2351 33.1315ZM44.2351 27.2697C42.9816 27.2697 42.0006 28.2527 42.0006 29.5088C42.0006 30.7649 42.9816 31.7479 44.2351 31.7479C45.4886 31.7479 46.4696 30.7649 46.4696 29.5088C46.4514 28.2345 45.4886 27.2697 44.2351 27.2697ZM44.2351 42.9254C42.2731 42.9254 40.6018 41.2506 40.6018 39.2845C40.6018 37.3184 42.2731 35.6437 44.2351 35.6437C46.1971 35.6437 47.8684 37.3184 47.8684 39.2845C47.8502 41.2506 46.1789 42.9254 44.2351 42.9254ZM44.2351 37.0454C42.9816 37.0454 42.0006 38.0284 42.0006 39.2845C42.0006 40.5406 42.9816 41.5236 44.2351 41.5236C45.4886 41.5236 46.4696 40.5406 46.4696 39.2845C46.4514 38.0284 45.4886 37.0454 44.2351 37.0454ZM44.2351 52.5736C42.2731 52.5736 40.6018 50.8988 40.6018 48.9328C40.6018 46.9667 42.2731 45.2919 44.2351 45.2919C46.1971 45.2919 47.8684 46.9667 47.8684 48.9328C47.8502 50.8988 46.1789 52.5736 44.2351 52.5736ZM44.2351 46.6936C42.9816 46.6936 42.0006 47.6767 42.0006 48.9328C42.0006 50.1889 42.9816 51.1719 44.2351 51.1719C45.4886 51.1719 46.4696 50.1889 46.4696 48.9328C46.4514 47.6767 45.4886 46.6936 44.2351 46.6936ZM59.9854 19.1506H50.5025C50.0847 19.1506 49.8122 18.8775 49.8122 18.4588C49.8122 18.0401 50.0847 17.7671 50.5025 17.7671H59.9854C60.4033 17.7671 60.6758 18.0401 60.6758 18.4588C60.6939 18.8775 60.4033 19.1506 59.9854 19.1506ZM57.4785 21.6628H50.5025C50.0847 21.6628 49.8122 21.3897 49.8122 20.971C49.8122 20.5523 50.0847 20.2793 50.5025 20.2793H57.4785C57.8963 20.2793 58.1688 20.5523 58.1688 20.971C58.187 21.3897 57.8963 21.6628 57.4785 21.6628ZM59.9854 28.9445H50.5025C50.0847 28.9445 49.8122 28.6714 49.8122 28.2527C49.8122 27.834 50.0847 27.561 50.5025 27.561H59.9854C60.4033 27.561 60.6758 27.834 60.6758 28.2527C60.6939 28.6532 60.4033 28.9445 59.9854 28.9445ZM57.4785 31.4567H50.5025C50.0847 31.4567 49.8122 31.1836 49.8122 30.7649C49.8122 30.3462 50.0847 30.0732 50.5025 30.0732H57.4785C57.8963 30.0732 58.1688 30.3462 58.1688 30.7649C58.187 31.1836 57.8963 31.4567 57.4785 31.4567ZM59.9854 38.7202H50.5025C50.0847 38.7202 49.8122 38.4471 49.8122 38.0284C49.8122 37.6097 50.0847 37.3367 50.5025 37.3367H59.9854C60.4033 37.3367 60.6758 37.6097 60.6758 38.0284C60.6939 38.4471 60.4033 38.7202 59.9854 38.7202ZM57.4785 41.2506H50.5025C50.0847 41.2506 49.8122 40.9775 49.8122 40.5588C49.8122 40.1401 50.0847 39.867 50.5025 39.867H57.4785C57.8963 39.867 58.1688 40.1401 58.1688 40.5588C58.187 40.9593 57.8963 41.2506 57.4785 41.2506ZM59.9854 48.3684H50.5025C50.0847 48.3684 49.8122 48.0954 49.8122 47.6767C49.8122 47.258 50.0847 46.9849 50.5025 46.9849H59.9854C60.4033 46.9849 60.6758 47.258 60.6758 47.6767C60.6758 48.0954 60.4033 48.3684 59.9854 48.3684ZM57.4785 50.8988H50.5025C50.0847 50.8988 49.8122 50.6258 49.8122 50.2071C49.8122 49.7884 50.0847 49.5153 50.5025 49.5153H57.4785C57.8963 49.5153 58.1688 49.7884 58.1688 50.2071C58.1688 50.6258 57.8963 50.8988 57.4785 50.8988ZM12.6982 54.2484C9.2102 54.2484 6.2854 51.3175 6.2854 47.8223C6.2854 45.5832 7.39355 43.6353 9.08303 42.5067C9.35553 42.361 9.77336 42.361 10.064 42.7797L12.9888 47.3854L18.1481 49.0602C18.5659 49.2058 18.7113 49.6245 18.5659 49.8976C17.8574 52.428 15.4776 54.2484 12.6982 54.2484ZM9.35553 44.0358C8.37454 44.8732 7.68422 46.2749 7.68422 47.8041C7.68422 50.6076 9.91869 52.8285 12.6982 52.8285C14.5148 52.8285 16.3314 51.718 17.0218 50.025L12.2803 48.4959C12.135 48.4959 12.0078 48.3502 11.8625 48.2228L9.35553 44.0358Z" fill="white"/>
<path id="Vector_4" d="M12.553 48.6599C12.2805 48.6599 12.1351 48.5142 11.9898 48.3868L8.91968 43.6355C8.77435 43.3624 8.77435 42.9437 9.06501 42.6525C10.046 41.9607 11.4448 41.542 12.553 41.542C14.3696 41.542 16.0409 42.2338 17.1491 43.5081C17.4216 43.7811 17.4216 44.1998 17.1491 44.4911L13.098 48.5506C12.9708 48.5142 12.6983 48.6599 12.553 48.6599ZM10.4638 43.4716L12.6983 46.8212L15.6231 43.9085C14.3696 42.9255 12.2805 42.5068 10.4638 43.4716Z" fill="white"/>
<path id="Vector_5" d="M17.8577 50.3349H17.5852L12.2806 48.5145C12.0081 48.3689 11.8628 48.2414 11.8628 47.9502C11.8628 47.6589 11.8628 47.5315 12.0081 47.2584L15.9139 43.1988C16.0592 43.0532 16.1864 43.0532 16.4771 42.9258C16.6224 42.9258 16.8949 43.0714 17.0402 43.1988C18.2937 44.6006 18.8569 46.1297 18.8569 47.6771C18.8569 48.5145 18.7115 49.0788 18.5844 49.6432C18.5844 49.7888 18.439 50.0618 18.3119 50.0618C18.1302 50.3349 18.0031 50.3349 17.8577 50.3349ZM13.8066 47.5315L17.2946 48.7876C17.2946 48.5145 17.4399 48.2232 17.4399 47.9502C17.4399 46.6941 16.8767 45.711 16.4589 45.0193L13.8066 47.5315ZM27.6313 54.2488C27.2134 54.2488 26.9409 53.9758 26.9409 53.5571V50.2075C26.9409 49.7888 27.2134 49.5157 27.6313 49.5157C28.4669 49.5157 29.3026 48.6783 29.3026 47.8409C29.3026 47.4222 29.5751 47.1492 29.9929 47.1492H33.3355C33.7534 47.1492 34.0259 47.4222 34.0259 47.8409C34.044 51.4454 31.2464 54.2488 27.6313 54.2488ZM28.3216 50.7536V52.7197C30.5561 52.4466 32.3727 50.6262 32.6452 48.3871H30.7014C30.2836 49.6249 29.4298 50.4623 28.3216 50.7536Z" fill="white"/>
<path id="Vector_6" d="M27.4858 54.2487C24.1432 54.2487 21.2002 51.3178 21.2002 47.8226C21.2002 47.4039 21.4727 47.1309 21.8905 47.1309H25.2513C25.6691 47.1309 25.9416 47.4039 25.9416 47.8226C25.9416 48.9331 26.7773 49.4974 27.613 49.4974C28.0308 49.4974 28.3033 49.7705 28.3033 50.1892C28.3033 50.3348 28.3033 50.4622 28.1579 50.6079V53.5388C28.1761 53.9575 27.9036 54.2487 27.4858 54.2487ZM22.599 48.5144C22.8715 50.7535 24.6882 52.4283 26.7773 52.847V50.8809C25.6691 50.6079 24.8153 49.7705 24.6882 48.6418H22.599V48.5144Z" fill="white"/>
<path id="Vector_7" d="M25.2512 48.515L22.0358 48.3693C21.618 48.3693 21.3455 48.0963 21.3455 47.6776C21.3455 44.1824 24.1431 41.3789 27.6311 41.3789C28.0489 41.3789 28.3214 41.652 28.3214 42.0707V45.4203C28.3214 45.8389 28.0489 46.112 27.6311 46.112C26.7954 46.112 25.9597 46.9494 25.9597 47.7868C25.9597 47.9324 25.8144 48.2055 25.6872 48.3511C25.6691 48.3693 25.3966 48.515 25.2512 48.515ZM22.7443 46.9676L24.5609 47.1132C24.8334 46.0028 25.8144 45.1472 26.7954 44.8741V42.9081C24.8334 43.1993 23.0168 44.8741 22.7443 46.9676Z" fill="white"/>
<path id="Vector_8" d="M33.3357 48.5142H29.9931C29.5753 48.5142 29.3028 48.2412 29.3028 47.8225C29.3028 46.9851 28.7396 46.2933 28.0493 46.2933C27.9039 46.2933 27.6315 46.2933 27.4861 46.1477C27.3408 46.002 27.2136 45.8746 27.2136 45.5833V42.2338C27.2136 41.8151 27.4861 41.542 27.9039 41.542C31.2466 41.542 34.0442 44.1998 34.1895 47.695V47.8407C34.0442 48.2412 33.7717 48.5142 33.3357 48.5142ZM30.5562 47.1125H32.5182C32.2457 45.019 30.5562 43.3442 28.3399 42.9255V44.8916C29.5753 45.1646 30.4109 46.002 30.5562 47.1125Z" fill="white"/>
</g>
</svg>
