<svg width="67" height="68" viewBox="0 0 67 68" fill="none" xmlns="http://www.w3.org/2000/svg">
<g id="Group">
<g id="Group_2">
<g id="Clip path group">
<mask id="mask0_553_5310" style="mask-type:luminance" maskUnits="userSpaceOnUse" x="-1" y="0" width="68" height="68">
<g id="SVGID_2_">
<path id="Vector" d="M66.9995 0H-0.000488281V67.0174H66.9995V0Z" fill="white"/>
</g>
</mask>
<g mask="url(#mask0_553_5310)">
<path id="Vector_2" d="M35.0697 3.10654C31.2137 3.10654 27.5147 3.80464 24.0775 5.07867C21.5825 1.98958 17.7788 0 13.5215 0C6.05381 0 -0.0180664 6.07346 -0.0180664 13.5431C-0.0180664 17.8015 1.971 21.6061 5.05928 24.1018C3.80303 27.5225 3.10511 31.2225 3.10511 35.0794C3.10511 52.689 17.4473 67.0349 35.0697 67.0349C52.6746 67.0349 67.0168 52.7064 67.0168 35.0794C66.9994 17.435 52.6746 3.10654 35.0697 3.10654ZM2.07568 13.5431C2.07568 7.22532 7.20537 2.0943 13.5215 2.0943C19.8377 2.0943 24.9848 7.22532 24.9848 13.5431C24.9848 19.8609 19.8377 24.9919 13.5215 24.9919C7.20537 24.9919 2.07568 19.8609 2.07568 13.5431ZM35.0697 64.9232C18.5989 64.9232 5.19886 51.5371 5.19886 35.062C5.19886 31.746 5.75719 28.4475 6.83896 25.3061C8.81058 26.423 11.0788 27.0862 13.5215 27.0862C20.9892 27.0862 27.0785 21.0128 27.0785 13.5431C27.0785 11.1172 26.4155 8.83095 25.2989 6.85882C28.3697 5.79422 31.6499 5.20083 35.0697 5.20083C51.5231 5.20083 64.9231 18.6043 64.9231 35.0794C64.9056 51.5371 51.5231 64.9232 35.0697 64.9232Z" fill="white"/>
</g>
</g>
</g>
<path id="Vector_3" d="M36.0993 31.2411V19.4956C36.0993 18.9197 35.6282 18.4485 35.0524 18.4485C34.4766 18.4485 34.0056 18.9197 34.0056 19.4956V31.2411C32.6621 31.6076 31.5977 32.6722 31.2313 34.0161H21.3035C20.7277 34.0161 20.2566 34.4873 20.2566 35.0632C20.2566 35.6391 20.7277 36.1103 21.3035 36.1103H31.2313C31.7024 37.8032 33.2204 39.0424 35.0524 39.0424C37.2509 39.0424 39.0306 37.2622 39.0306 35.0632C39.0306 33.2307 37.7917 31.6949 36.0993 31.2411ZM35.0524 36.9481C34.0056 36.9481 33.1681 36.0929 33.1681 35.0632C33.1681 34.0161 34.023 33.1783 35.0524 33.1783C36.0993 33.1783 36.9368 34.0335 36.9368 35.0632C36.9368 36.1103 36.0993 36.9481 35.0524 36.9481ZM35.0524 11.2929C35.6282 11.2929 36.0993 10.8217 36.0993 10.2458V9.53025C36.0993 8.95432 35.6282 8.4831 35.0524 8.4831C34.4766 8.4831 34.0056 8.95432 34.0056 9.53025V10.2458C34.0056 10.8217 34.4766 11.2929 35.0524 11.2929ZM35.0524 58.8335C34.4766 58.8335 34.0056 59.3047 34.0056 59.8806V60.5962C34.0056 61.1721 34.4766 61.6433 35.0524 61.6433C35.6282 61.6433 36.0993 61.1721 36.0993 60.5962V59.8806C36.0993 59.3047 35.6282 58.8335 35.0524 58.8335ZM52.3608 16.2669L51.8548 16.773C51.4535 17.1744 51.4535 17.8376 51.8548 18.2565C52.2561 18.6579 52.9191 18.6579 53.3378 18.2565L53.8438 17.7504C54.0358 17.5584 54.1579 17.2791 54.1579 16.9999C54.1579 16.7207 54.0532 16.4589 53.8438 16.2494C53.6345 16.04 53.3727 15.9353 53.0936 15.9353C52.8319 15.9528 52.5527 16.0749 52.3608 16.2669ZM16.767 51.8699L16.261 52.376C15.8597 52.7775 15.8597 53.4406 16.261 53.8595C16.6623 54.2609 17.3253 54.2609 17.7441 53.8595L18.2501 53.3534C18.6514 52.952 18.6514 52.2888 18.2501 51.8699C17.8488 51.4685 17.1858 51.4685 16.767 51.8699ZM60.5787 34.0161H59.8634C59.2876 34.0161 58.8165 34.4873 58.8165 35.0632C58.8165 35.6391 59.2876 36.1103 59.8634 36.1103H60.5787C61.1545 36.1103 61.6256 35.6391 61.6256 35.0632C61.6256 34.4873 61.1545 34.0161 60.5787 34.0161ZM10.2415 34.0161H9.52612C8.95034 34.0161 8.47925 34.4873 8.47925 35.0632C8.47925 35.6391 8.95034 36.1103 9.52612 36.1103H10.2415C10.8173 36.1103 11.2884 35.6391 11.2884 35.0632C11.2884 34.4873 10.8173 34.0161 10.2415 34.0161ZM53.3378 51.8699C52.9365 51.4685 52.2735 51.4685 51.8548 51.8699C51.4535 52.2713 51.4535 52.9345 51.8548 53.3534L52.3608 53.8595C52.7621 54.2609 53.4251 54.2609 53.8438 53.8595C54.2451 53.4581 54.2451 52.7949 53.8438 52.376L53.3378 51.8699ZM13.7311 17.4362H10.8522C10.2764 17.4362 9.80529 17.9074 9.80529 18.4834C9.80529 19.0593 10.2764 19.5305 10.8522 19.5305H12.4923V20.2112C12.4923 20.7871 12.9634 21.2583 13.5391 21.2583C14.1149 21.2583 14.586 20.7871 14.586 20.2112V19.4258C16.1214 19.0418 17.2556 17.6631 17.2556 16.0226C17.2556 14.0853 15.6852 12.5146 13.7485 12.5146H13.3298C12.5446 12.5146 11.9165 11.8689 11.9165 11.101C11.9165 10.3156 12.5621 9.68732 13.3298 9.68732H16.2087C16.7845 9.68732 17.2556 9.21611 17.2556 8.64018C17.2556 8.06424 16.7845 7.59303 16.2087 7.59303H14.586V6.91238C14.586 6.33645 14.1149 5.86523 13.5391 5.86523C12.9634 5.86523 12.4923 6.33645 12.4923 6.91238V7.69774C10.9569 8.04679 9.80529 9.42554 9.80529 11.0661C9.80529 13.0033 11.3756 14.574 13.3123 14.574H13.7311C14.5162 14.574 15.1444 15.2198 15.1444 15.9877C15.1618 16.7905 14.5162 17.4362 13.7311 17.4362Z" fill="white"/>
</g>
</svg>
