<svg width="37" height="38" viewBox="0 0 37 38" fill="none" xmlns="http://www.w3.org/2000/svg">
<g id="Group">
<path id="Vector" d="M29.3677 32.5362H4.09569C2.47569 32.5362 1.17969 31.2402 1.17969 29.6202V6.2202C1.17969 4.6002 2.47569 3.3042 4.09569 3.3042H29.3677C30.9877 3.3042 32.2837 4.6002 32.2837 6.2202V29.6202C32.2477 31.2402 30.9517 32.5362 29.3677 32.5362Z" fill="white" stroke="#275F77" stroke-miterlimit="10"/>
<path id="Vector_2" d="M29.1512 36.8563C33.1276 36.8563 36.3512 33.6327 36.3512 29.6563C36.3512 25.6798 33.1276 22.4563 29.1512 22.4563C25.1747 22.4563 21.9512 25.6798 21.9512 29.6563C21.9512 33.6327 25.1747 36.8563 29.1512 36.8563Z" fill="#F7C973" stroke="#275F77" stroke-miterlimit="10"/>
<path id="Vector_3" d="M8.27155 7.04831C7.26355 7.04831 6.43555 6.22031 6.43555 5.21231V3.05231C6.43555 2.04431 7.26355 1.21631 8.27155 1.21631C9.27955 1.21631 10.1075 2.04431 10.1075 3.05231V5.21231C10.1075 6.22031 9.27955 7.04831 8.27155 7.04831Z" fill="white" stroke="#275F77" stroke-miterlimit="10"/>
<path id="Vector_4" d="M24.9766 7.04831C23.9686 7.04831 23.1406 6.22031 23.1406 5.21231V3.05231C23.1406 2.04431 23.9686 1.21631 24.9766 1.21631C25.9846 1.21631 26.8126 2.04431 26.8126 3.05231V5.21231C26.8126 6.22031 25.9846 7.04831 24.9766 7.04831Z" fill="white" stroke="#275F77" stroke-miterlimit="10"/>
<path id="Vector_5" d="M9.06248 19.1442H7.37048C6.68648 19.1442 6.14648 18.6041 6.14648 17.9201V16.2281C6.14648 15.5441 6.68648 15.0042 7.37048 15.0042H9.06248C9.74648 15.0042 10.2865 15.5441 10.2865 16.2281V17.9201C10.3225 18.6041 9.74648 19.1442 9.06248 19.1442Z" fill="white" stroke="#275F77" stroke-miterlimit="10"/>
<path id="Vector_6" d="M17.4512 19.1442H15.7592C15.0752 19.1442 14.5352 18.6041 14.5352 17.9201V16.2281C14.5352 15.5441 15.0752 15.0042 15.7592 15.0042H17.4512C18.1352 15.0042 18.6752 15.5441 18.6752 16.2281V17.9201C18.6752 18.6041 18.1352 19.1442 17.4512 19.1442Z" fill="white" stroke="#275F77" stroke-miterlimit="10"/>
<path id="Vector_7" d="M9.06248 27.5323H7.37048C6.68648 27.5323 6.14648 26.9923 6.14648 26.3083V24.6163C6.14648 23.9323 6.68648 23.3923 7.37048 23.3923H9.06248C9.74648 23.3923 10.2865 23.9323 10.2865 24.6163V26.3083C10.3225 26.9923 9.74648 27.5323 9.06248 27.5323Z" fill="#275F77" stroke="#275F77" stroke-miterlimit="10"/>
<path id="Vector_8" d="M17.4512 27.5323H15.7592C15.0752 27.5323 14.5352 26.9923 14.5352 26.3083V24.6163C14.5352 23.9323 15.0752 23.3923 15.7592 23.3923H17.4512C18.1352 23.3923 18.6752 23.9323 18.6752 24.6163V26.3083C18.6752 26.9923 18.1352 27.5323 17.4512 27.5323Z" fill="white" stroke="#275F77" stroke-miterlimit="10"/>
<path id="Vector_9" d="M25.8047 19.1442H24.1127C23.4287 19.1442 22.8887 18.6041 22.8887 17.9201V16.2281C22.8887 15.5441 23.4287 15.0042 24.1127 15.0042H25.8047C26.4887 15.0042 27.0287 15.5441 27.0287 16.2281V17.9201C27.0647 18.6041 26.4887 19.1442 25.8047 19.1442Z" fill="white" stroke="#275F77" stroke-miterlimit="10"/>
<path id="Vector_10" d="M1.17969 10.2161H32.2477" stroke="#275F77" stroke-miterlimit="10"/>
<path id="Vector_11" d="M26.5234 27.0002L31.7794 32.2562" stroke="#275F77" stroke-miterlimit="10" stroke-linecap="round" stroke-linejoin="round"/>
<path id="Vector_12" d="M31.5997 27.0002L26.3438 32.2562" stroke="#275F77" stroke-miterlimit="10" stroke-linecap="round" stroke-linejoin="round"/>
</g>
</svg>
