<svg width="32" height="39" viewBox="0 0 32 39" fill="none" xmlns="http://www.w3.org/2000/svg">
<g id="Group 525">
<path id="Vector" d="M24.605 34.1041H3.14266C1.9642 34.1041 1 33.1399 1 31.9615V3.14266C1 1.9642 1.9642 1 3.14266 1H24.605C25.7835 1 26.7477 1.9642 26.7477 3.14266V31.9972C26.7119 33.1756 25.7835 34.1041 24.605 34.1041Z" fill="white" stroke="#275F77" stroke-miterlimit="10"/>
<path id="Vector_2" d="M28.3999 37.9343H6.93758C5.75912 37.9343 4.79492 36.9701 4.79492 35.7916V6.9371C4.79492 5.75863 5.75912 4.79443 6.93758 4.79443H28.3999C29.5784 4.79443 30.5426 5.75863 30.5426 6.9371V35.7916C30.5069 36.9701 29.5784 37.9343 28.3999 37.9343Z" fill="white" stroke="#275F77" stroke-miterlimit="10"/>
<path id="Vector_3" d="M14.1068 17.1054H8.39302C7.6788 17.1054 7.10742 16.5341 7.10742 15.8198V8.96333C7.10742 8.24911 7.6788 7.67773 8.39302 7.67773H14.1068C14.821 7.67773 15.3924 8.24911 15.3924 8.96333V15.8198C15.3924 15.8913 15.3567 16.4269 14.9281 16.784C14.6067 17.0697 14.2496 17.1054 14.1068 17.1054Z" fill="#F7C973" stroke="#275F77" stroke-miterlimit="10"/>
<g id="Vector_4">
<path d="M7.71289 16.8916C8.3914 15.2846 9.78413 14.2847 11.284 14.249C12.7839 14.2133 14.2123 15.1775 14.9265 16.7845" fill="white"/>
<path d="M7.71289 16.8916C8.3914 15.2846 9.78413 14.2847 11.284 14.249C12.7839 14.2133 14.2123 15.1775 14.9265 16.7845" stroke="#275F77" stroke-miterlimit="10"/>
</g>
<path id="Vector_5" d="M11.3918 14.2485C12.6146 14.2485 13.6059 13.2572 13.6059 12.0344C13.6059 10.8116 12.6146 9.82031 11.3918 9.82031C10.169 9.82031 9.17773 10.8116 9.17773 12.0344C9.17773 13.2572 10.169 14.2485 11.3918 14.2485Z" fill="white" stroke="#275F77" stroke-miterlimit="10"/>
<path id="Vector_6" d="M19.4629 11.249H27.0693" stroke="#275F77" stroke-miterlimit="10" stroke-linecap="round" stroke-linejoin="round"/>
<path id="Vector_7" d="M19.4629 13.9272H27.0693" stroke="#275F77" stroke-miterlimit="10" stroke-linecap="round" stroke-linejoin="round"/>
<path id="Vector_8" d="M8.30469 21.0693H28.0172" stroke="#275F77" stroke-miterlimit="10" stroke-linecap="round" stroke-linejoin="round"/>
<path id="Vector_9" d="M8.30469 24.605H27.6244" stroke="#275F77" stroke-miterlimit="10" stroke-linecap="round" stroke-linejoin="round"/>
<path id="Vector_10" d="M8.37695 28.1401H27.6252" stroke="#275F77" stroke-miterlimit="10" stroke-linecap="round" stroke-linejoin="round"/>
<path id="Vector_11" d="M8.37695 31.6753H27.6252" stroke="#275F77" stroke-miterlimit="10" stroke-linecap="round" stroke-linejoin="round"/>
</g>
</svg>
