<svg width="38" height="39" viewBox="0 0 38 39" fill="none" xmlns="http://www.w3.org/2000/svg">
<g id="Group 530">
<path id="Vector" d="M29.8416 33.0463H3.98362C2.32605 33.0463 1 31.7203 1 30.0627V6.12009C1 4.46253 2.32605 3.13647 3.98362 3.13647H29.8416C31.4992 3.13647 32.8252 4.46253 32.8252 6.12009V30.0627C32.7884 31.7203 31.4624 33.0463 29.8416 33.0463Z" fill="white" stroke="#C4C4C4" stroke-width="1.16135" stroke-miterlimit="10"/>
<path id="Vector_2" d="M29.6209 37.4663C33.6895 37.4663 36.9878 34.168 36.9878 30.0994C36.9878 26.0307 33.6895 22.7324 29.6209 22.7324C25.5522 22.7324 22.2539 26.0307 22.2539 30.0994C22.2539 34.168 25.5522 37.4663 29.6209 37.4663Z" fill="#F7C973" stroke="#C4C4C4" stroke-width="1.16135" stroke-miterlimit="10"/>
<path id="Vector_3" d="M8.25748 6.96723C7.22611 6.96723 6.37891 6.12003 6.37891 5.08866V2.87857C6.37891 1.8472 7.22611 1 8.25748 1C9.28885 1 10.1361 1.8472 10.1361 2.87857V5.08866C10.1361 6.12003 9.28885 6.96723 8.25748 6.96723Z" fill="white" stroke="#C4C4C4" stroke-width="1.16135" stroke-miterlimit="10"/>
<path id="Vector_4" d="M25.3473 6.96723C24.3159 6.96723 23.4688 6.12003 23.4688 5.08866V2.87857C23.4688 1.8472 24.3159 1 25.3473 1C26.3787 1 27.2259 1.8472 27.2259 2.87857V5.08866C27.2259 6.12003 26.3787 6.96723 25.3473 6.96723Z" fill="white" stroke="#C4C4C4" stroke-width="1.16135" stroke-miterlimit="10"/>
<path id="Vector_5" d="M9.0676 19.3437H7.33637C6.63651 19.3437 6.08398 18.7911 6.08398 18.0913V16.36C6.08398 15.6602 6.63651 15.1077 7.33637 15.1077H9.0676C9.76746 15.1077 10.32 15.6602 10.32 16.36V18.0913C10.3568 18.7911 9.76746 19.3437 9.0676 19.3437Z" fill="white" stroke="#C4C4C4" stroke-width="1.16135" stroke-miterlimit="10"/>
<path id="Vector_6" d="M17.6496 19.3437H15.9184C15.2185 19.3437 14.666 18.7911 14.666 18.0913V16.36C14.666 15.6602 15.2185 15.1077 15.9184 15.1077H17.6496C18.3495 15.1077 18.902 15.6602 18.902 16.36V18.0913C18.902 18.7911 18.3495 19.3437 17.6496 19.3437Z" fill="white" stroke="#C4C4C4" stroke-width="1.16135" stroke-miterlimit="10"/>
<path id="Vector_7" d="M9.0676 27.9262H7.33637C6.63651 27.9262 6.08398 27.3737 6.08398 26.6738V24.9426C6.08398 24.2427 6.63651 23.6902 7.33637 23.6902H9.0676C9.76746 23.6902 10.32 24.2427 10.32 24.9426V26.6738C10.3568 27.3737 9.76746 27.9262 9.0676 27.9262Z" fill="white" stroke="#C4C4C4" stroke-width="1.16135" stroke-miterlimit="10"/>
<path id="Vector_8" d="M17.6496 27.9262H15.9184C15.2185 27.9262 14.666 27.3737 14.666 26.6738V24.9426C14.666 24.2427 15.2185 23.6902 15.9184 23.6902H17.6496C18.3495 23.6902 18.902 24.2427 18.902 24.9426V26.6738C18.902 27.3737 18.3495 27.9262 17.6496 27.9262Z" fill="white" stroke="#C4C4C4" stroke-width="1.16135" stroke-miterlimit="10"/>
<path id="Vector_9" d="M26.1946 19.3437H24.4633C23.7635 19.3437 23.2109 18.7911 23.2109 18.0913V16.36C23.2109 15.6602 23.7635 15.1077 24.4633 15.1077H26.1946C26.8944 15.1077 27.4469 15.6602 27.4469 16.36V18.0913C27.4838 18.7911 26.8944 19.3437 26.1946 19.3437Z" fill="white" stroke="#C4C4C4" stroke-width="1.16135" stroke-miterlimit="10"/>
<path id="Vector_10" d="M1 10.2085H32.7884" stroke="#C4C4C4" stroke-width="1.16135" stroke-miterlimit="10"/>
<path id="Vector_11" d="M25.7889 29.1049L26.1204 28.4787C26.2309 28.2577 26.1941 28.0367 26.0468 27.8525L25.9362 27.6684C25.7521 27.4105 25.7889 27.079 26.0099 26.858L26.3783 26.5265C26.5993 26.3423 26.894 26.3423 27.115 26.4897C27.3728 26.6738 27.8148 26.8212 27.778 26.8212C27.7412 26.7843 28.2568 26.5265 28.5515 26.3423C28.6989 26.2686 28.8094 26.1213 28.8094 25.974L28.883 25.6425C28.9567 25.3846 29.1777 25.2004 29.4724 25.2004H29.9881C30.2828 25.2004 30.5038 25.4214 30.5774 25.6793L30.6143 25.9371C30.6511 26.0845 30.7248 26.2318 30.8721 26.3423L31.4246 26.7107C31.6088 26.8212 31.8666 26.858 32.0508 26.7107L32.3455 26.5633C32.5665 26.416 32.898 26.4528 33.0822 26.6738L33.3769 26.9685C33.561 27.1527 33.5979 27.4474 33.4505 27.6684L33.34 27.8157C33.2295 27.963 33.2295 28.1841 33.3032 28.3682L33.5979 28.9944C33.6716 29.1418 33.7821 29.2523 33.9662 29.3259L34.2609 29.4364C34.5188 29.5101 34.6661 29.7311 34.6661 29.989V30.431C34.6661 30.7257 34.4451 30.9835 34.1504 31.0203H34.1136C33.9294 31.0572 33.7452 31.1677 33.6347 31.3518L33.34 31.978C33.2664 32.1622 33.2664 32.3464 33.34 32.5306L33.4505 32.7516C33.561 32.9726 33.5242 33.2673 33.34 33.4514L32.8612 33.7461C32.677 33.9303 32.4192 33.9671 32.1982 33.8566L31.8298 33.6724C31.6825 33.5988 31.4615 33.5988 31.3141 33.6724L30.7984 33.9303C30.6511 34.0039 30.5038 34.1513 30.4669 34.3355L30.3933 34.6301C30.3196 34.9248 30.0617 35.109 29.7671 35.0722L29.2145 35.0353C28.9567 34.9985 28.7725 34.8511 28.6989 34.5933L28.662 34.3723C28.6252 34.1881 28.4778 34.0408 28.2937 33.9671L27.7043 33.7461C27.5201 33.6724 27.336 33.7093 27.1886 33.7829L27.0413 33.8566C26.8203 34.0039 26.4888 33.9671 26.3046 33.7461L25.9362 33.3778C25.7521 33.1936 25.7152 32.8989 25.8626 32.6779L25.9731 32.4937C26.0836 32.3095 26.0836 32.0517 25.9731 31.8307L25.5311 31.2045C25.4574 31.094 25.3469 31.0203 25.2364 30.9835L25.1259 30.9467C24.9049 30.873 24.7207 30.652 24.7207 30.3941V30.0258C24.7207 29.768 24.9049 29.5469 25.1627 29.4733L25.4574 29.3996C25.6047 29.3259 25.7152 29.2154 25.7889 29.1049Z" fill="white" stroke="#C4C4C4" stroke-width="0.580677" stroke-miterlimit="10"/>
<path id="Vector_12" d="M29.6197 32.6777C31.0234 32.6777 32.1613 31.5398 32.1613 30.1361C32.1613 28.7324 31.0234 27.5945 29.6197 27.5945C28.216 27.5945 27.0781 28.7324 27.0781 30.1361C27.0781 31.5398 28.216 32.6777 29.6197 32.6777Z" fill="white" stroke="#C4C4C4" stroke-width="0.580677" stroke-miterlimit="10"/>
</g>
</svg>
