<svg width="30" height="36" viewBox="0 0 30 36" fill="none" xmlns="http://www.w3.org/2000/svg">
<g id="Group 526">
<path id="Vector" d="M5.89062 1.61107L9.43648 1.57031" stroke="#C4C4C4" stroke-miterlimit="10"/>
<path id="Vector_2" d="M2.95703 31.0378H5.52472" stroke="#C4C4C4" stroke-miterlimit="10"/>
<path id="Vector_3" d="M7.84741 30.7525V2.75255C7.84741 1.81514 7.11378 1.04076 6.21713 1H6.17638C5.23897 1 4.42383 1.81514 4.42383 2.75255V30.7525C4.42383 31.0378 4.66837 31.2416 4.91291 31.2416H7.31757C7.60287 31.2416 7.84741 31.0378 7.84741 30.7525Z" fill="white" stroke="#C4C4C4" stroke-miterlimit="10"/>
<path id="Vector_4" d="M1 5.03475V29.815C1 30.5078 1.48908 31.1192 2.18195 31.2414C2.50801 31.2822 2.83406 31.323 3.24163 31.2414C3.9345 31.1192 4.46434 30.5078 4.46434 29.815V5.03475C4.46434 4.79021 4.26055 4.58643 4.01601 4.58643H1.44833C1.20378 4.58643 1 4.79021 1 5.03475Z" fill="white" stroke="#C4C4C4" stroke-miterlimit="10"/>
<path id="Vector_5" d="M7.84766 2.46725V33.7686C7.84766 34.1761 8.3775 34.3392 8.58128 33.9723L9.19263 32.9534C9.35566 32.7089 9.72247 32.7089 9.8855 32.9534L10.9044 34.6652C11.0675 34.9098 11.4343 34.9098 11.5973 34.6652L12.6162 32.9942C12.7792 32.7496 13.1461 32.7496 13.3091 32.9942L14.328 34.706C14.491 34.9505 14.8578 34.9505 15.0209 34.706L16.0398 32.9942C16.2028 32.7496 16.5696 32.7496 16.7327 32.9942L17.7516 34.706C17.9146 34.9505 18.2814 34.9505 18.4445 34.706L19.4634 32.9942C19.6264 32.7496 19.9932 32.7496 20.1562 32.9942L21.1752 34.706C21.3382 34.9505 21.705 34.9505 21.868 34.706L22.887 32.9942C23.05 32.7496 23.4168 32.7496 23.5798 32.9942L24.5987 34.706C24.7618 34.9505 25.1286 34.9505 25.2916 34.706L26.3513 32.9534C26.5143 32.7089 26.8811 32.7089 27.0442 32.9127L27.8593 34.1354C28.1038 34.4614 28.5929 34.2984 28.5929 33.8908V2.46725C28.5929 1.65211 27.9408 1 27.1257 1H9.27415C8.49977 1 7.84766 1.65211 7.84766 2.46725Z" fill="white" stroke="#C4C4C4" stroke-miterlimit="10"/>
<path id="Vector_6" d="M18.1177 14.4497C21.1339 14.4497 23.5791 12.0045 23.5791 8.98828C23.5791 5.97202 21.1339 3.52686 18.1177 3.52686C15.1014 3.52686 12.6562 5.97202 12.6562 8.98828C12.6562 12.0045 15.1014 14.4497 18.1177 14.4497Z" fill="#F7C973" stroke="#C4C4C4" stroke-miterlimit="10"/>
<path id="Vector_7" d="M17.9141 5.72771C17.9141 6.01301 17.9141 6.33906 17.9141 6.62436C17.9141 6.74663 17.9956 6.82815 18.1178 6.82815C18.2401 6.82815 18.3216 6.74663 18.3216 6.62436C18.3216 6.33906 18.3216 6.01301 18.3216 5.72771C18.3216 5.60544 18.2401 5.52393 18.1178 5.52393C18.0363 5.56468 17.9141 5.6462 17.9141 5.72771Z" fill="#C4C4C4"/>
<path id="Vector_8" d="M18.3216 12.0451C18.3216 11.8005 18.3216 11.556 18.3216 11.3115C18.3216 11.1892 18.2401 11.1077 18.1178 11.1077C17.9956 11.1077 17.9141 11.1892 17.9141 11.3115C17.9141 11.3522 17.9141 11.393 17.9141 11.393C17.9141 11.5152 17.9956 11.5967 18.1178 11.5967C18.2401 11.5967 18.3216 11.5152 18.3216 11.393C18.3216 11.3522 18.3216 11.3115 18.3216 11.3115C18.1994 11.3115 18.0363 11.3115 17.9141 11.3115C17.9141 11.556 17.9141 11.8005 17.9141 12.0451C17.9141 12.1673 17.9956 12.2489 18.1178 12.2489C18.1994 12.2489 18.3216 12.1673 18.3216 12.0451Z" fill="#C4C4C4"/>
<path id="Vector_9" d="M16.8134 10.2517C16.8949 10.9854 17.5063 11.5152 18.2399 11.4337C18.9328 11.3522 19.4218 10.7408 19.4626 10.048C19.4626 9.31433 18.892 8.98827 18.2807 8.78449C17.9546 8.70297 17.6285 8.5807 17.4248 8.2954C17.221 8.01011 17.221 7.64329 17.384 7.31724C17.5878 6.99118 17.9546 6.7874 18.3214 6.86891C18.729 6.95043 19.0143 7.31724 19.055 7.68405C19.0958 7.92859 19.5034 7.92859 19.4626 7.68405C19.4218 7.03194 18.892 6.46134 18.2399 6.42059C17.5878 6.37983 16.9764 6.86891 16.8949 7.52102C16.8134 8.21389 17.221 8.74373 17.8323 8.98827C18.1176 9.11054 18.4844 9.1513 18.7697 9.35508C19.055 9.55887 19.1365 9.88492 19.055 10.211C18.9328 10.6185 18.6067 10.9446 18.1991 10.9446C17.7508 10.9854 17.3432 10.6185 17.2617 10.1702C17.1802 10.0072 16.7726 10.0072 16.8134 10.2517Z" fill="#C4C4C4"/>
<path id="Vector_10" d="M16.8143 16.6913C17.6294 16.6913 18.4445 16.6913 19.2597 16.6913C19.5042 16.6913 19.5042 16.2837 19.2597 16.2837C18.4445 16.2837 17.6294 16.2837 16.8143 16.2837C16.5697 16.2837 16.5697 16.6913 16.8143 16.6913Z" fill="#C4C4C4"/>
<path id="Vector_11" d="M10.5779 18.933C13.3494 18.933 16.1616 18.933 18.9331 18.933C19.1776 18.933 19.1776 18.5254 18.9331 18.5254C16.1616 18.5254 13.3494 18.5254 10.5779 18.5254C10.3334 18.5254 10.3334 18.933 10.5779 18.933Z" fill="#C4C4C4"/>
<path id="Vector_12" d="M21.339 18.933C22.8877 18.933 24.3957 18.933 25.9445 18.933C26.189 18.933 26.189 18.5254 25.9445 18.5254C24.3957 18.5254 22.8877 18.5254 21.339 18.5254C21.0537 18.5254 21.0537 18.933 21.339 18.933Z" fill="#C4C4C4"/>
<path id="Vector_13" d="M10.5779 21.1744C13.3494 21.1744 16.1616 21.1744 18.9331 21.1744C19.1776 21.1744 19.1776 20.7668 18.9331 20.7668C16.1616 20.7668 13.3494 20.7668 10.5779 20.7668C10.3334 20.7668 10.3334 21.1744 10.5779 21.1744Z" fill="#C4C4C4"/>
<path id="Vector_14" d="M21.339 21.1744C22.8877 21.1744 24.3957 21.1744 25.9445 21.1744C26.189 21.1744 26.189 20.7668 25.9445 20.7668C24.3957 20.7668 22.8877 20.7668 21.339 20.7668C21.0537 20.7668 21.0537 21.1744 21.339 21.1744Z" fill="#C4C4C4"/>
<path id="Vector_15" d="M10.5779 23.4571C13.3494 23.4571 16.1616 23.4571 18.9331 23.4571C19.1776 23.4571 19.1776 23.0496 18.9331 23.0496C16.1616 23.0496 13.3494 23.0496 10.5779 23.0496C10.3334 23.0496 10.3334 23.4571 10.5779 23.4571Z" fill="#C4C4C4"/>
<path id="Vector_16" d="M21.339 23.4571C22.8877 23.4571 24.3957 23.4571 25.9445 23.4571C26.189 23.4571 26.189 23.0496 25.9445 23.0496C24.3957 23.0496 22.8877 23.0496 21.339 23.0496C21.0537 23.0496 21.0537 23.4571 21.339 23.4571Z" fill="#C4C4C4"/>
<path id="Vector_17" d="M10.5779 25.7394C13.3494 25.7394 16.1616 25.7394 18.9331 25.7394C19.1776 25.7394 19.1776 25.3318 18.9331 25.3318C16.1616 25.3318 13.3494 25.3318 10.5779 25.3318C10.3334 25.3318 10.3334 25.7394 10.5779 25.7394Z" fill="#C4C4C4"/>
<path id="Vector_18" d="M21.339 25.7394C22.8877 25.7394 24.3957 25.7394 25.9445 25.7394C26.189 25.7394 26.189 25.3318 25.9445 25.3318C24.3957 25.3318 22.8877 25.3318 21.339 25.3318C21.0537 25.3318 21.0537 25.7394 21.339 25.7394Z" fill="#C4C4C4"/>
<path id="Vector_19" d="M10.5779 28.0218C13.3494 28.0218 16.1616 28.0218 18.9331 28.0218C19.1776 28.0218 19.1776 27.6143 18.9331 27.6143C16.1616 27.6143 13.3494 27.6143 10.5779 27.6143C10.3334 27.6143 10.3334 28.0218 10.5779 28.0218Z" fill="#C4C4C4"/>
<path id="Vector_20" d="M21.339 28.0218C22.8877 28.0218 24.3957 28.0218 25.9445 28.0218C26.189 28.0218 26.189 27.6143 25.9445 27.6143C24.3957 27.6143 22.8877 27.6143 21.339 27.6143C21.0537 27.6143 21.0537 28.0218 21.339 28.0218Z" fill="#C4C4C4"/>
<path id="Vector_21" d="M21.339 30.3041C22.8877 30.3041 24.3957 30.3041 25.9445 30.3041C26.189 30.3041 26.189 29.8965 25.9445 29.8965C24.3957 29.8965 22.8877 29.8965 21.339 29.8965C21.0537 29.8965 21.0537 30.3041 21.339 30.3041Z" fill="#C4C4C4"/>
</g>
</svg>
