<svg width="37" height="38" viewBox="0 0 37 38" fill="none" xmlns="http://www.w3.org/2000/svg">
<g id="Group">
<path id="Vector" d="M29.188 32.3199H3.916C2.296 32.3199 1 31.0239 1 29.4039V6.00389C1 4.38389 2.296 3.08789 3.916 3.08789H29.188C30.808 3.08789 32.104 4.38389 32.104 6.00389V29.4039C32.068 31.0239 30.772 32.3199 29.188 32.3199Z" fill="white" stroke="#C4C4C4" stroke-miterlimit="10"/>
<path id="Vector_2" d="M28.9715 36.64C32.9479 36.64 36.1715 33.4164 36.1715 29.44C36.1715 25.4635 32.9479 22.24 28.9715 22.24C24.995 22.24 21.7715 25.4635 21.7715 29.44C21.7715 33.4164 24.995 36.64 28.9715 36.64Z" fill="#F7C973" stroke="#C4C4C4" stroke-miterlimit="10"/>
<path id="Vector_3" d="M8.09186 6.832C7.08386 6.832 6.25586 6.004 6.25586 4.996V2.836C6.25586 1.828 7.08386 1 8.09186 1C9.09986 1 9.92786 1.828 9.92786 2.836V4.996C9.92786 6.004 9.09986 6.832 8.09186 6.832Z" fill="white" stroke="#C4C4C4" stroke-miterlimit="10"/>
<path id="Vector_4" d="M24.7969 6.832C23.7889 6.832 22.9609 6.004 22.9609 4.996V2.836C22.9609 1.828 23.7889 1 24.7969 1C25.8049 1 26.6329 1.828 26.6329 2.836V4.996C26.6329 6.004 25.8049 6.832 24.7969 6.832Z" fill="white" stroke="#C4C4C4" stroke-miterlimit="10"/>
<path id="Vector_5" d="M8.8828 18.9278H7.1908C6.5068 18.9278 5.9668 18.3878 5.9668 17.7038V16.0118C5.9668 15.3278 6.5068 14.7878 7.1908 14.7878H8.8828C9.5668 14.7878 10.1068 15.3278 10.1068 16.0118V17.7038C10.1428 18.3878 9.5668 18.9278 8.8828 18.9278Z" fill="white" stroke="#C4C4C4" stroke-miterlimit="10"/>
<path id="Vector_6" d="M17.2715 18.9278H15.5795C14.8955 18.9278 14.3555 18.3878 14.3555 17.7038V16.0118C14.3555 15.3278 14.8955 14.7878 15.5795 14.7878H17.2715C17.9555 14.7878 18.4955 15.3278 18.4955 16.0118V17.7038C18.4955 18.3878 17.9555 18.9278 17.2715 18.9278Z" fill="white" stroke="#C4C4C4" stroke-miterlimit="10"/>
<path id="Vector_7" d="M8.8828 27.316H7.1908C6.5068 27.316 5.9668 26.776 5.9668 26.092V24.4C5.9668 23.716 6.5068 23.176 7.1908 23.176H8.8828C9.5668 23.176 10.1068 23.716 10.1068 24.4V26.092C10.1428 26.776 9.5668 27.316 8.8828 27.316Z" fill="#C4C4C4" stroke="#C4C4C4" stroke-miterlimit="10"/>
<path id="Vector_8" d="M17.2715 27.316H15.5795C14.8955 27.316 14.3555 26.776 14.3555 26.092V24.4C14.3555 23.716 14.8955 23.176 15.5795 23.176H17.2715C17.9555 23.176 18.4955 23.716 18.4955 24.4V26.092C18.4955 26.776 17.9555 27.316 17.2715 27.316Z" fill="white" stroke="#C4C4C4" stroke-miterlimit="10"/>
<path id="Vector_9" d="M25.625 18.9278H23.933C23.249 18.9278 22.709 18.3878 22.709 17.7038V16.0118C22.709 15.3278 23.249 14.7878 23.933 14.7878H25.625C26.309 14.7878 26.849 15.3278 26.849 16.0118V17.7038C26.885 18.3878 26.309 18.9278 25.625 18.9278Z" fill="white" stroke="#C4C4C4" stroke-miterlimit="10"/>
<path id="Vector_10" d="M1 9.99976H32.068" stroke="#C4C4C4" stroke-miterlimit="10"/>
<path id="Vector_11" d="M26.3438 26.7839L31.5997 32.0399" stroke="#C4C4C4" stroke-miterlimit="10" stroke-linecap="round" stroke-linejoin="round"/>
<path id="Vector_12" d="M31.4201 26.7839L26.1641 32.0399" stroke="#C4C4C4" stroke-miterlimit="10" stroke-linecap="round" stroke-linejoin="round"/>
</g>
</svg>
