<svg width="37" height="38" viewBox="0 0 37 38" fill="none" xmlns="http://www.w3.org/2000/svg">
<g id="Group">
<path id="Vector" d="M29.3208 32.4676H3.92973C2.3021 32.4676 1 31.1655 1 29.5378V6.02763C1 4.4 2.3021 3.0979 3.92973 3.0979H29.3208C30.9484 3.0979 32.2505 4.4 32.2505 6.02763V29.5378C32.2143 31.1655 30.9122 32.4676 29.3208 32.4676Z" fill="white" stroke="#C4C4C4" stroke-width="1.1303" stroke-miterlimit="10"/>
<path id="Vector_2" d="M29.1031 36.8077C33.0982 36.8077 36.337 33.5689 36.337 29.5738C36.337 25.5786 33.0982 22.3398 29.1031 22.3398C25.1079 22.3398 21.8691 25.5786 21.8691 29.5738C21.8691 33.5689 25.1079 36.8077 29.1031 36.8077Z" fill="#F7C973" stroke="#C4C4C4" stroke-width="1.1303" stroke-miterlimit="10"/>
<path id="Vector_3" d="M8.1259 6.85947C7.11315 6.85947 6.28125 6.02757 6.28125 5.01482V2.84465C6.28125 1.8319 7.11315 1 8.1259 1C9.13864 1 9.97054 1.8319 9.97054 2.84465V5.01482C9.97054 6.02757 9.13864 6.85947 8.1259 6.85947Z" fill="white" stroke="#C4C4C4" stroke-width="1.1303" stroke-miterlimit="10"/>
<path id="Vector_4" d="M24.9071 6.85947C23.8944 6.85947 23.0625 6.02757 23.0625 5.01482V2.84465C23.0625 1.8319 23.8944 1 24.9071 1C25.9199 1 26.7518 1.8319 26.7518 2.84465V5.01482C26.7518 6.02757 25.9199 6.85947 24.9071 6.85947Z" fill="white" stroke="#C4C4C4" stroke-width="1.1303" stroke-miterlimit="10"/>
<path id="Vector_5" d="M8.91997 19.0123H7.22C6.53278 19.0123 5.99023 18.4697 5.99023 17.7825V16.0825C5.99023 15.3953 6.53278 14.8528 7.22 14.8528H8.91997C9.60719 14.8528 10.1497 15.3953 10.1497 16.0825V17.7825C10.1859 18.4697 9.60719 19.0123 8.91997 19.0123Z" fill="white" stroke="#C4C4C4" stroke-width="1.1303" stroke-miterlimit="10"/>
<path id="Vector_6" d="M17.3477 19.0123H15.6477C14.9605 19.0123 14.418 18.4697 14.418 17.7825V16.0825C14.418 15.3953 14.9605 14.8528 15.6477 14.8528H17.3477C18.0349 14.8528 18.5775 15.3953 18.5775 16.0825V17.7825C18.5775 18.4697 18.0349 19.0123 17.3477 19.0123Z" fill="white" stroke="#C4C4C4" stroke-width="1.1303" stroke-miterlimit="10"/>
<path id="Vector_7" d="M8.91997 27.4398H7.22C6.53278 27.4398 5.99023 26.8972 5.99023 26.21V24.51C5.99023 23.8228 6.53278 23.2803 7.22 23.2803H8.91997C9.60719 23.2803 10.1497 23.8228 10.1497 24.51V26.21C10.1859 26.8972 9.60719 27.4398 8.91997 27.4398Z" fill="white" stroke="#C4C4C4" stroke-width="1.1303" stroke-miterlimit="10"/>
<path id="Vector_8" d="M17.3477 27.4398H15.6477C14.9605 27.4398 14.418 26.8972 14.418 26.21V24.51C14.418 23.8228 14.9605 23.2803 15.6477 23.2803H17.3477C18.0349 23.2803 18.5775 23.8228 18.5775 24.51V26.21C18.5775 26.8972 18.0349 27.4398 17.3477 27.4398Z" fill="white" stroke="#C4C4C4" stroke-width="1.1303" stroke-miterlimit="10"/>
<path id="Vector_9" d="M25.7403 19.0123H24.0403C23.3531 19.0123 22.8105 18.4697 22.8105 17.7825V16.0825C22.8105 15.3953 23.3531 14.8528 24.0403 14.8528H25.7403C26.4275 14.8528 26.97 15.3953 26.97 16.0825V17.7825C27.0062 18.4697 26.4275 19.0123 25.7403 19.0123Z" fill="white" stroke="#C4C4C4" stroke-width="1.1303" stroke-miterlimit="10"/>
<path id="Vector_10" d="M28.8145 26.7524V30.1162L32.5037 33.1545" stroke="#C4C4C4" stroke-width="1.1303" stroke-miterlimit="10" stroke-linecap="round" stroke-linejoin="round"/>
<path id="Vector_11" d="M1 10.042H32.2143" stroke="#C4C4C4" stroke-width="1.1303" stroke-miterlimit="10"/>
</g>
</svg>
