<svg width="35" height="34" viewBox="0 0 35 34" fill="none" xmlns="http://www.w3.org/2000/svg">
<g id="Group 528">
<path id="Vector" d="M31.6214 25.8966H3.96626C2.38005 25.8966 1.13867 24.6552 1.13867 23.069V3.82759C1.13867 2.24138 2.38005 1 3.96626 1H31.6214C33.2076 1 34.449 2.24138 34.449 3.82759V23.069C34.449 24.6552 33.2076 25.8966 31.6214 25.8966Z" fill="white" stroke="#C4C4C4" stroke-miterlimit="10"/>
<path id="Vector_2" d="M1 20.0347H34.4483" stroke="#C4C4C4" stroke-miterlimit="10"/>
<path id="Vector_3" d="M17.8973 23.4826C18.3163 23.4826 18.6559 23.1429 18.6559 22.724C18.6559 22.305 18.3163 21.9653 17.8973 21.9653C17.4783 21.9653 17.1387 22.305 17.1387 22.724C17.1387 23.1429 17.4783 23.4826 17.8973 23.4826Z" fill="white" stroke="#C4C4C4" stroke-miterlimit="10"/>
<path id="Vector_4" d="M12.8633 29.8275V25.8965" stroke="white" stroke-miterlimit="10"/>
<path id="Vector_5" d="M23.1387 29.8275V25.8965" stroke="white" stroke-miterlimit="10"/>
<path id="Vector_6" d="M23.8269 29.4138H11.8959C10.8614 29.4138 9.96484 30.2414 9.96484 31.3449V32.1724C9.96484 32.7242 10.3786 33.138 10.9304 33.138H24.7924C25.3442 33.138 25.7579 32.7242 25.7579 32.1724V31.3449C25.7579 30.3104 24.9304 29.4138 23.8269 29.4138Z" fill="white" stroke="#C4C4C4" stroke-miterlimit="10"/>
<path id="Vector_7" d="M12.7246 9.55176V11.9656C12.7246 13 13.2763 13.9656 14.1729 14.5173C15.8281 15.4828 18.6556 16.4483 21.897 14.4483C22.7246 13.8966 23.2074 13 23.2074 11.9656V9.55176H12.7246Z" fill="#F7C973" stroke="#C4C4C4" stroke-miterlimit="10" stroke-linecap="round" stroke-linejoin="round"/>
<path id="Vector_8" d="M24.7252 6.65519L18.1045 2.93105C17.7597 2.72415 17.3459 2.72415 17.0011 2.93105L10.7252 6.58622C9.96659 7.00002 9.96659 8.17243 10.7252 8.58622L12.5873 9.68967L17.07 12.3793C17.4149 12.5862 17.8976 12.5862 18.2425 12.3793L24.7942 8.72415C25.5528 8.2414 25.5528 7.13795 24.7252 6.65519Z" fill="#F7C973" stroke="#C4C4C4" stroke-miterlimit="10" stroke-linecap="round" stroke-linejoin="round"/>
<path id="Vector_9" d="M17.7598 7.41382L21.208 10.8621V15.9655" stroke="#C4C4C4" stroke-miterlimit="10" stroke-linecap="round" stroke-linejoin="round"/>
<path id="Vector_10" d="M21.207 18.1722C21.8164 18.1722 22.3104 17.6782 22.3104 17.0688C22.3104 16.4594 21.8164 15.9653 21.207 15.9653C20.5975 15.9653 20.1035 16.4594 20.1035 17.0688C20.1035 17.6782 20.5975 18.1722 21.207 18.1722Z" stroke="#C4C4C4" stroke-miterlimit="10" stroke-linecap="round" stroke-linejoin="round"/>
<path id="Vector_11" d="M23.1391 25.8965H12.8633V29.4137H23.1391V25.8965Z" fill="white" stroke="#C4C4C4" stroke-miterlimit="10"/>
</g>
</svg>
