<svg width="36" height="34" viewBox="0 0 36 34" fill="none" xmlns="http://www.w3.org/2000/svg">
<g id="Group 528">
<path id="Vector" d="M31.8285 26.2413H4.17329C2.58708 26.2413 1.3457 24.9999 1.3457 23.4137V4.17231C1.3457 2.58611 2.58708 1.34473 4.17329 1.34473H31.8285C33.4147 1.34473 34.656 2.58611 34.656 4.17231V23.4137C34.656 24.9999 33.4147 26.2413 31.8285 26.2413Z" fill="white" stroke="#275F77" stroke-miterlimit="10"/>
<path id="Vector_2" d="M1.20703 20.3794H34.6553" stroke="#275F77" stroke-miterlimit="10"/>
<path id="Vector_3" d="M18.1043 23.8273C18.5233 23.8273 18.8629 23.4877 18.8629 23.0687C18.8629 22.6497 18.5233 22.3101 18.1043 22.3101C17.6853 22.3101 17.3457 22.6497 17.3457 23.0687C17.3457 23.4877 17.6853 23.8273 18.1043 23.8273Z" fill="white" stroke="#275F77" stroke-miterlimit="10"/>
<path id="Vector_4" d="M13.0703 30.1722V26.2412" stroke="white" stroke-miterlimit="10"/>
<path id="Vector_5" d="M23.3457 30.1722V26.2412" stroke="white" stroke-miterlimit="10"/>
<path id="Vector_6" d="M24.0339 29.7585H12.1029C11.0684 29.7585 10.1719 30.5861 10.1719 31.6896V32.5172C10.1719 33.0689 10.5857 33.4827 11.1374 33.4827H24.9995C25.5512 33.4827 25.965 33.0689 25.965 32.5172V31.6896C25.965 30.6551 25.1374 29.7585 24.0339 29.7585Z" fill="white" stroke="#275F77" stroke-miterlimit="10"/>
<path id="Vector_7" d="M12.9316 9.89648V12.3103C12.9316 13.3448 13.4834 14.3103 14.3799 14.862C16.0351 15.8275 18.8627 16.793 22.1041 14.793C22.9316 14.2413 23.4144 13.3448 23.4144 12.3103V9.89648H12.9316Z" fill="#F7C973" stroke="#275F77" stroke-miterlimit="10" stroke-linecap="round" stroke-linejoin="round"/>
<path id="Vector_8" d="M24.9322 6.99992L18.3116 3.27578C17.9667 3.06888 17.5529 3.06888 17.2081 3.27578L10.9322 6.93095C10.1736 7.34474 10.1736 8.51716 10.9322 8.93095L12.7943 10.0344L17.2771 12.7241C17.6219 12.931 18.1047 12.931 18.4495 12.7241L25.0012 9.06888C25.7598 8.58612 25.7598 7.48267 24.9322 6.99992Z" fill="#F7C973" stroke="#275F77" stroke-miterlimit="10" stroke-linecap="round" stroke-linejoin="round"/>
<path id="Vector_9" d="M17.9668 7.75854L21.4151 11.2068V16.3103" stroke="#275F77" stroke-miterlimit="10" stroke-linecap="round" stroke-linejoin="round"/>
<path id="Vector_10" d="M21.414 18.517C22.0234 18.517 22.5174 18.0229 22.5174 17.4135C22.5174 16.8041 22.0234 16.3101 21.414 16.3101C20.8046 16.3101 20.3105 16.8041 20.3105 17.4135C20.3105 18.0229 20.8046 18.517 21.414 18.517Z" stroke="#275F77" stroke-miterlimit="10" stroke-linecap="round" stroke-linejoin="round"/>
<path id="Vector_11" d="M23.3462 26.2412H13.0703V29.7585H23.3462V26.2412Z" fill="white" stroke="#275F77" stroke-miterlimit="10"/>
</g>
</svg>
