<svg width="26" height="24" viewBox="0 0 26 24" fill="none" xmlns="http://www.w3.org/2000/svg">
<g id="Group">
<path id="Vector" d="M8.30938 10.0727H4.73075C4.38878 10.0727 4.11133 9.79526 4.11133 9.45329C4.11133 9.11131 4.38878 8.83386 4.73075 8.83386H7.69076V4.73017C7.69076 4.3882 7.96822 4.11075 8.31019 4.11075C8.65216 4.11075 8.92961 4.3882 8.92961 4.73017V9.45409C8.92881 9.79526 8.65216 10.0727 8.30938 10.0727ZM19.7082 23.2532H13.7027C11.9921 23.2532 10.6056 21.8668 10.6056 20.1561V10.0542C10.6056 9.71219 10.8831 9.43474 11.225 9.43474H22.1859C22.5279 9.43474 22.8054 9.71219 22.8054 10.0542V20.1553C22.8054 21.8668 21.4189 23.2532 19.7082 23.2532ZM11.8445 10.6736V20.1553C11.8445 21.182 12.676 22.0136 13.7027 22.0136H19.7082C20.735 22.0136 21.5665 21.1812 21.5665 20.1553V10.6736H11.8445Z" fill="#C4C4C4"/>
<path id="Vector_2" d="M24.1424 19.8168H22.5075C22.1656 19.8168 21.8881 19.5393 21.8881 19.1973C21.8881 18.8554 22.1656 18.5779 22.5075 18.5779H24.1424C24.4844 18.5779 24.7618 18.3005 24.7618 17.9585V15.4687C24.7618 15.1267 24.4844 14.8493 24.1424 14.8493H22.5075C22.1656 14.8493 21.8881 14.5718 21.8881 14.2298C21.8881 13.8879 22.1656 13.6104 22.5075 13.6104H24.1424C25.1691 13.6104 26.0007 14.4428 26.0007 15.4687V17.9585C26.0007 18.9844 25.1691 19.8168 24.1424 19.8168ZM15.8987 9.14539C15.5567 9.14539 15.2793 8.86794 15.2793 8.52596V6.52977C15.2793 4.81909 16.6666 3.43265 18.3764 3.43265H20.6605C21.0025 3.43265 21.28 3.1552 21.28 2.81322C21.2824 1.25982 22.5414 0.00161309 24.094 0H25.3812C25.7232 0 26.0007 0.277451 26.0007 0.619425C26.0007 0.961399 25.7232 1.23885 25.3812 1.23885H24.094C23.2245 1.23966 22.5196 1.94457 22.5196 2.81322C22.5196 3.83995 21.6873 4.6715 20.6614 4.6715H18.3772C17.3505 4.6715 16.519 5.50385 16.519 6.52977V8.52516C16.519 8.86794 16.2415 9.14539 15.8987 9.14539Z" fill="#C4C4C4"/>
<path id="Vector_3" d="M21.1096 6.65959H18.2779C17.9359 6.65959 17.6584 6.38214 17.6584 6.04017C17.6584 5.69819 17.9359 5.42074 18.2779 5.42074H21.1096C22.4533 5.41994 23.5422 4.3303 23.5438 2.9866C23.5438 2.64462 23.8212 2.36717 24.1632 2.36717C24.5052 2.36717 24.7826 2.64462 24.7826 2.9866C24.781 5.01505 23.1381 6.65798 21.1096 6.65959ZM8.6292 18.4585C3.86334 18.4585 0 14.596 0 9.83011C0 5.06425 3.86334 1.20172 8.6292 1.20172C10.8286 1.19607 12.945 2.04375 14.5323 3.5665C14.6573 3.67861 14.7323 3.83589 14.7388 4.00446C14.7452 4.17302 14.6839 4.33594 14.5678 4.45693C14.4516 4.57871 14.2911 4.64727 14.1226 4.64808C13.9548 4.64888 13.7935 4.58113 13.6757 4.46096C12.3183 3.1592 10.5093 2.43492 8.6292 2.44057C4.54809 2.46235 1.25659 5.78772 1.27756 9.86883C1.29853 13.9499 4.62472 17.2414 8.70582 17.2197C8.79535 17.2221 8.88487 17.2164 8.97359 17.2035C9.13813 17.1713 9.30831 17.2068 9.44623 17.3019C9.58415 17.3971 9.6769 17.5447 9.70432 17.7092C9.73174 17.8746 9.69142 18.0439 9.59221 18.1786C9.49301 18.3133 9.34299 18.4021 9.17684 18.4246C8.99456 18.4521 8.81148 18.4633 8.6292 18.4585ZM24.014 23.6349H10.0447C9.70271 23.6349 9.42526 23.3574 9.42526 23.0155C9.42526 22.6735 9.70271 22.396 10.0447 22.396H24.014C24.356 22.396 24.6334 22.6735 24.6334 23.0155C24.6334 23.3574 24.356 23.6349 24.014 23.6349Z" fill="#C4C4C4"/>
</g>
</svg>
