<svg width="32" height="32" viewBox="0 0 32 32" fill="none" xmlns="http://www.w3.org/2000/svg">
<g id="Group 529">
<path id="Vector" d="M22.1498 1.34473H5.20312V4.65139H22.1498V1.34473Z" fill="white"/>
<path id="Vector_2" d="M14.5711 5.89142L2.17111 13.7448C1.48222 14.227 1 14.9848 1 15.8114V28.9003C1 30.2781 2.10222 31.3803 3.48 31.3803H29.0378C30.4156 31.3803 31.5178 30.2781 31.5178 28.9003V16.087C31.5178 15.2603 31.1044 14.5025 30.4156 14.0203L18.0844 5.89142C16.9822 5.20253 15.6044 5.20253 14.5711 5.89142Z" fill="white" stroke="#275F77" stroke-width="0.688889" stroke-miterlimit="10"/>
<path id="Vector_3" d="M1.06836 15.3291L16.3617 27.8669L31.3795 15.3291" stroke="#275F77" stroke-width="0.688889" stroke-miterlimit="10"/>
<g id="Vector_4">
<path d="M23.9402 1.00011H5.40906C5.40906 1.00011 2.72239 0.931221 1.68906 4.23789C1.55128 4.65122 1.89573 5.06456 2.30906 5.06456L7.75128 4.99567" fill="white"/>
<path d="M23.9402 1.00011H5.40906C5.40906 1.00011 2.72239 0.931221 1.68906 4.23789C1.55128 4.65122 1.89573 5.06456 2.30906 5.06456L7.75128 4.99567" stroke="#275F77" stroke-width="0.688889" stroke-miterlimit="10" stroke-linecap="round" stroke-linejoin="round"/>
</g>
<path id="Vector_5" d="M6.30571 19.5314L14.3657 26.4891C15.3302 27.3158 16.7079 27.3158 17.6724 26.558L26.8346 19.0491C27.4546 18.5669 27.799 17.8091 27.799 17.0514V7.33802C27.799 5.54691 27.2479 3.82469 26.1457 2.44691C25.5257 1.68913 24.699 1.06913 23.8035 1.00024C23.6657 1.00024 23.5968 1.00024 23.459 1.00024C22.4946 1.06913 21.3235 1.82691 20.1524 3.82469C19.6702 4.58247 18.8435 5.06469 17.9479 5.06469H5.89238C5.61682 5.06469 5.41016 5.27136 5.41016 5.54691V17.6025C5.41016 18.2914 5.7546 18.9802 6.30571 19.5314Z" fill="white" stroke="#275F77" stroke-width="0.688889" stroke-miterlimit="10" stroke-linecap="round" stroke-linejoin="round"/>
<g id="Vector_6">
<path d="M4.23828 30.8979L14.5027 20.6335C15.4672 19.669 17.1205 19.669 18.0849 20.6335L28.4183 30.9668" fill="white"/>
<path d="M4.23828 30.8979L14.5027 20.6335C15.4672 19.669 17.1205 19.669 18.0849 20.6335L28.4183 30.9668" stroke="#275F77" stroke-width="0.688889" stroke-miterlimit="10" stroke-linecap="round" stroke-linejoin="round"/>
</g>
<path id="Vector_7" d="M8.71484 7.95801H23.3193" stroke="#275F77" stroke-width="0.688889" stroke-miterlimit="10" stroke-linecap="round" stroke-linejoin="round"/>
<path id="Vector_8" d="M8.71484 11.1267H23.3193" stroke="#275F77" stroke-width="0.688889" stroke-miterlimit="10" stroke-linecap="round" stroke-linejoin="round"/>
<path id="Vector_9" d="M8.71484 13.9514H23.3193" stroke="#275F77" stroke-width="0.688889" stroke-miterlimit="10" stroke-linecap="round" stroke-linejoin="round"/>
<path id="Vector_10" d="M8.71484 17.0513H23.3193" stroke="#275F77" stroke-width="0.688889" stroke-miterlimit="10" stroke-linecap="round" stroke-linejoin="round"/>
</g>
</svg>
