<svg width="30" height="36" viewBox="0 0 30 36" fill="none" xmlns="http://www.w3.org/2000/svg">
<g id="Group 526">
<path id="Vector" d="M6.09375 1.81493L9.6396 1.77417" stroke="#275F77" stroke-miterlimit="10"/>
<path id="Vector_2" d="M3.16016 31.2417H5.72784" stroke="#275F77" stroke-miterlimit="10"/>
<path id="Vector_3" d="M8.05053 30.9564V2.9564C8.05053 2.019 7.31691 1.24461 6.42026 1.20386H6.3795C5.44209 1.20386 4.62695 2.019 4.62695 2.9564V30.9564C4.62695 31.2417 4.87149 31.4455 5.11604 31.4455H7.52069C7.80599 31.4455 8.05053 31.2417 8.05053 30.9564Z" fill="white" stroke="#275F77" stroke-miterlimit="10"/>
<path id="Vector_4" d="M1.20312 5.23861V30.0188C1.20312 30.7117 1.69221 31.323 2.38508 31.4453C2.71113 31.4861 3.03719 31.5268 3.44476 31.4453C4.13762 31.323 4.66746 30.7117 4.66746 30.0188V5.23861C4.66746 4.99407 4.46368 4.79028 4.21914 4.79028H1.65145C1.40691 4.79028 1.20312 4.99407 1.20312 5.23861Z" fill="white" stroke="#275F77" stroke-miterlimit="10"/>
<path id="Vector_5" d="M8.05078 2.67111V33.9724C8.05078 34.38 8.58062 34.543 8.78441 34.1762L9.39576 33.1573C9.55879 32.9127 9.9256 32.9127 10.0886 33.1573L11.1075 34.8691C11.2706 35.1136 11.6374 35.1136 11.8004 34.8691L12.8193 33.198C12.9824 32.9535 13.3492 32.9535 13.5122 33.198L14.5311 34.9098C14.6942 35.1544 15.061 35.1544 15.224 34.9098L16.2429 33.198C16.4059 32.9535 16.7728 32.9535 16.9358 33.198L17.9547 34.9098C18.1177 35.1544 18.4846 35.1544 18.6476 34.9098L19.6665 33.198C19.8295 32.9535 20.1963 32.9535 20.3594 33.198L21.3783 34.9098C21.5413 35.1544 21.9081 35.1544 22.0712 34.9098L23.0901 33.198C23.2531 32.9535 23.6199 32.9535 23.783 33.198L24.8019 34.9098C24.9649 35.1544 25.3317 35.1544 25.4947 34.9098L26.5544 33.1573C26.7174 32.9127 27.0843 32.9127 27.2473 33.1165L28.0624 34.3392C28.307 34.6653 28.796 34.5023 28.796 34.0947V2.67111C28.796 1.85597 28.1439 1.20386 27.3288 1.20386H9.47727C8.70289 1.20386 8.05078 1.85597 8.05078 2.67111Z" fill="white" stroke="#275F77" stroke-miterlimit="10"/>
<path id="Vector_6" d="M18.3208 14.6536C21.3371 14.6536 23.7822 12.2084 23.7822 9.19214C23.7822 6.17588 21.3371 3.73071 18.3208 3.73071C15.3045 3.73071 12.8594 6.17588 12.8594 9.19214C12.8594 12.2084 15.3045 14.6536 18.3208 14.6536Z" fill="#F7C973" stroke="#275F77" stroke-miterlimit="10"/>
<path id="Vector_7" d="M18.1172 5.93157C18.1172 6.21687 18.1172 6.54292 18.1172 6.82822C18.1172 6.95049 18.1987 7.032 18.321 7.032C18.4432 7.032 18.5248 6.95049 18.5248 6.82822C18.5248 6.54292 18.5248 6.21687 18.5248 5.93157C18.5248 5.8093 18.4432 5.72778 18.321 5.72778C18.2395 5.76854 18.1172 5.85005 18.1172 5.93157Z" fill="#275F77"/>
<path id="Vector_8" d="M18.5248 12.2489C18.5248 12.0044 18.5248 11.7598 18.5248 11.5153C18.5248 11.393 18.4432 11.3115 18.321 11.3115C18.1987 11.3115 18.1172 11.393 18.1172 11.5153C18.1172 11.5561 18.1172 11.5968 18.1172 11.5968C18.1172 11.7191 18.1987 11.8006 18.321 11.8006C18.4432 11.8006 18.5248 11.7191 18.5248 11.5968C18.5248 11.5561 18.5248 11.5153 18.5248 11.5153C18.4025 11.5153 18.2395 11.5153 18.1172 11.5153C18.1172 11.7598 18.1172 12.0044 18.1172 12.2489C18.1172 12.3712 18.1987 12.4527 18.321 12.4527C18.4025 12.4527 18.5248 12.3712 18.5248 12.2489Z" fill="#275F77"/>
<path id="Vector_9" d="M17.0165 10.4556C17.098 11.1892 17.7094 11.7191 18.443 11.6375C19.1359 11.556 19.625 10.9447 19.6657 10.2518C19.6657 9.51818 19.0951 9.19213 18.4838 8.98834C18.1577 8.90683 17.8317 8.78456 17.6279 8.49926C17.4241 8.21396 17.4241 7.84715 17.5871 7.5211C17.7909 7.19504 18.1577 6.99125 18.5245 7.07277C18.9321 7.15428 19.2174 7.52109 19.2582 7.88791C19.2989 8.13245 19.7065 8.13245 19.6657 7.88791C19.625 7.2358 19.0951 6.6652 18.443 6.62444C17.7909 6.58369 17.1796 7.07277 17.098 7.72488C17.0165 8.41775 17.4241 8.94759 18.0355 9.19213C18.3207 9.3144 18.6876 9.35516 18.9729 9.55894C19.2582 9.76273 19.3397 10.0888 19.2582 10.4148C19.1359 10.8224 18.8098 11.1485 18.4023 11.1485C17.9539 11.1892 17.5464 10.8224 17.4649 10.3741C17.3833 10.2111 16.9758 10.2111 17.0165 10.4556Z" fill="#275F77"/>
<path id="Vector_10" d="M17.0174 16.8951C17.8325 16.8951 18.6477 16.8951 19.4628 16.8951C19.7073 16.8951 19.7073 16.4875 19.4628 16.4875C18.6477 16.4875 17.8325 16.4875 17.0174 16.4875C16.7728 16.4875 16.7728 16.8951 17.0174 16.8951Z" fill="#275F77"/>
<path id="Vector_11" d="M10.7811 19.1368C13.5525 19.1368 16.3648 19.1368 19.1362 19.1368C19.3808 19.1368 19.3808 18.7292 19.1362 18.7292C16.3648 18.7292 13.5525 18.7292 10.7811 18.7292C10.5365 18.7292 10.5365 19.1368 10.7811 19.1368Z" fill="#275F77"/>
<path id="Vector_12" d="M21.5421 19.1368C23.0909 19.1368 24.5989 19.1368 26.1476 19.1368C26.3922 19.1368 26.3922 18.7292 26.1476 18.7292C24.5989 18.7292 23.0909 18.7292 21.5421 18.7292C21.2568 18.7292 21.2568 19.1368 21.5421 19.1368Z" fill="#275F77"/>
<path id="Vector_13" d="M10.7811 21.3783C13.5525 21.3783 16.3648 21.3783 19.1362 21.3783C19.3808 21.3783 19.3808 20.9707 19.1362 20.9707C16.3648 20.9707 13.5525 20.9707 10.7811 20.9707C10.5365 20.9707 10.5365 21.3783 10.7811 21.3783Z" fill="#275F77"/>
<path id="Vector_14" d="M21.5421 21.3783C23.0909 21.3783 24.5989 21.3783 26.1476 21.3783C26.3922 21.3783 26.3922 20.9707 26.1476 20.9707C24.5989 20.9707 23.0909 20.9707 21.5421 20.9707C21.2568 20.9707 21.2568 21.3783 21.5421 21.3783Z" fill="#275F77"/>
<path id="Vector_15" d="M10.7811 23.661C13.5525 23.661 16.3648 23.661 19.1362 23.661C19.3808 23.661 19.3808 23.2534 19.1362 23.2534C16.3648 23.2534 13.5525 23.2534 10.7811 23.2534C10.5365 23.2534 10.5365 23.661 10.7811 23.661Z" fill="#275F77"/>
<path id="Vector_16" d="M21.5421 23.661C23.0909 23.661 24.5989 23.661 26.1476 23.661C26.3922 23.661 26.3922 23.2534 26.1476 23.2534C24.5989 23.2534 23.0909 23.2534 21.5421 23.2534C21.2568 23.2534 21.2568 23.661 21.5421 23.661Z" fill="#275F77"/>
<path id="Vector_17" d="M10.7811 25.9432C13.5525 25.9432 16.3648 25.9432 19.1362 25.9432C19.3808 25.9432 19.3808 25.5356 19.1362 25.5356C16.3648 25.5356 13.5525 25.5356 10.7811 25.5356C10.5365 25.5356 10.5365 25.9432 10.7811 25.9432Z" fill="#275F77"/>
<path id="Vector_18" d="M21.5421 25.9432C23.0909 25.9432 24.5989 25.9432 26.1476 25.9432C26.3922 25.9432 26.3922 25.5356 26.1476 25.5356C24.5989 25.5356 23.0909 25.5356 21.5421 25.5356C21.2568 25.5356 21.2568 25.9432 21.5421 25.9432Z" fill="#275F77"/>
<path id="Vector_19" d="M10.7811 28.2257C13.5525 28.2257 16.3648 28.2257 19.1362 28.2257C19.3808 28.2257 19.3808 27.8181 19.1362 27.8181C16.3648 27.8181 13.5525 27.8181 10.7811 27.8181C10.5365 27.8181 10.5365 28.2257 10.7811 28.2257Z" fill="#275F77"/>
<path id="Vector_20" d="M21.5421 28.2257C23.0909 28.2257 24.5989 28.2257 26.1476 28.2257C26.3922 28.2257 26.3922 27.8181 26.1476 27.8181C24.5989 27.8181 23.0909 27.8181 21.5421 27.8181C21.2568 27.8181 21.2568 28.2257 21.5421 28.2257Z" fill="#275F77"/>
<path id="Vector_21" d="M21.5421 30.5079C23.0909 30.5079 24.5989 30.5079 26.1476 30.5079C26.3922 30.5079 26.3922 30.1003 26.1476 30.1003C24.5989 30.1003 23.0909 30.1003 21.5421 30.1003C21.2568 30.1003 21.2568 30.5079 21.5421 30.5079Z" fill="#275F77"/>
</g>
</svg>
