<svg width="38" height="39" viewBox="0 0 38 39" fill="none" xmlns="http://www.w3.org/2000/svg">
<g id="Group 530">
<path id="Vector" d="M29.8416 33.0331H3.98362C2.32605 33.0331 1 31.7071 1 30.0495V6.10691C1 4.44934 2.32605 3.12329 3.98362 3.12329H29.8416C31.4992 3.12329 32.8252 4.44934 32.8252 6.10691V30.0495C32.7884 31.7071 31.4624 33.0331 29.8416 33.0331Z" fill="white" stroke="#275F77" stroke-width="1.16135" stroke-miterlimit="10"/>
<path id="Vector_2" d="M29.6209 37.4531C33.6895 37.4531 36.9878 34.1548 36.9878 30.0862C36.9878 26.0175 33.6895 22.7192 29.6209 22.7192C25.5522 22.7192 22.2539 26.0175 22.2539 30.0862C22.2539 34.1548 25.5522 37.4531 29.6209 37.4531Z" fill="#F7C973" stroke="#275F77" stroke-width="1.16135" stroke-miterlimit="10"/>
<path id="Vector_3" d="M8.25748 6.95405C7.22611 6.95405 6.37891 6.10685 6.37891 5.07548V2.86539C6.37891 1.83402 7.22611 0.986816 8.25748 0.986816C9.28885 0.986816 10.1361 1.83402 10.1361 2.86539V5.07548C10.1361 6.10685 9.28885 6.95405 8.25748 6.95405Z" fill="white" stroke="#275F77" stroke-width="1.16135" stroke-miterlimit="10"/>
<path id="Vector_4" d="M25.3473 6.95405C24.3159 6.95405 23.4688 6.10685 23.4688 5.07548V2.86539C23.4688 1.83402 24.3159 0.986816 25.3473 0.986816C26.3787 0.986816 27.2259 1.83402 27.2259 2.86539V5.07548C27.2259 6.10685 26.3787 6.95405 25.3473 6.95405Z" fill="white" stroke="#275F77" stroke-width="1.16135" stroke-miterlimit="10"/>
<path id="Vector_5" d="M9.0676 19.3305H7.33637C6.63651 19.3305 6.08398 18.778 6.08398 18.0781V16.3469C6.08398 15.647 6.63651 15.0945 7.33637 15.0945H9.0676C9.76746 15.0945 10.32 15.647 10.32 16.3469V18.0781C10.3568 18.778 9.76746 19.3305 9.0676 19.3305Z" fill="white" stroke="#275F77" stroke-width="1.16135" stroke-miterlimit="10"/>
<path id="Vector_6" d="M17.6496 19.3305H15.9184C15.2185 19.3305 14.666 18.778 14.666 18.0781V16.3469C14.666 15.647 15.2185 15.0945 15.9184 15.0945H17.6496C18.3495 15.0945 18.902 15.647 18.902 16.3469V18.0781C18.902 18.778 18.3495 19.3305 17.6496 19.3305Z" fill="white" stroke="#275F77" stroke-width="1.16135" stroke-miterlimit="10"/>
<path id="Vector_7" d="M9.0676 27.913H7.33637C6.63651 27.913 6.08398 27.3605 6.08398 26.6606V24.9294C6.08398 24.2295 6.63651 23.677 7.33637 23.677H9.0676C9.76746 23.677 10.32 24.2295 10.32 24.9294V26.6606C10.3568 27.3605 9.76746 27.913 9.0676 27.913Z" fill="white" stroke="#275F77" stroke-width="1.16135" stroke-miterlimit="10"/>
<path id="Vector_8" d="M17.6496 27.913H15.9184C15.2185 27.913 14.666 27.3605 14.666 26.6606V24.9294C14.666 24.2295 15.2185 23.677 15.9184 23.677H17.6496C18.3495 23.677 18.902 24.2295 18.902 24.9294V26.6606C18.902 27.3605 18.3495 27.913 17.6496 27.913Z" fill="white" stroke="#275F77" stroke-width="1.16135" stroke-miterlimit="10"/>
<path id="Vector_9" d="M26.1946 19.3305H24.4633C23.7635 19.3305 23.2109 18.778 23.2109 18.0781V16.3469C23.2109 15.647 23.7635 15.0945 24.4633 15.0945H26.1946C26.8944 15.0945 27.4469 15.647 27.4469 16.3469V18.0781C27.4838 18.778 26.8944 19.3305 26.1946 19.3305Z" fill="white" stroke="#275F77" stroke-width="1.16135" stroke-miterlimit="10"/>
<path id="Vector_10" d="M1 10.1953H32.7884" stroke="#275F77" stroke-width="1.16135" stroke-miterlimit="10"/>
<path id="Vector_11" d="M25.7889 29.0917L26.1204 28.4655C26.2309 28.2445 26.1941 28.0235 26.0468 27.8394L25.9362 27.6552C25.7521 27.3973 25.7889 27.0658 26.0099 26.8448L26.3783 26.5133C26.5993 26.3291 26.894 26.3291 27.115 26.4765C27.3728 26.6606 27.8148 26.808 27.778 26.808C27.7412 26.7711 28.2568 26.5133 28.5515 26.3291C28.6989 26.2555 28.8094 26.1081 28.8094 25.9608L28.883 25.6293C28.9567 25.3714 29.1777 25.1873 29.4724 25.1873H29.9881C30.2828 25.1873 30.5038 25.4083 30.5774 25.6661L30.6143 25.924C30.6511 26.0713 30.7248 26.2186 30.8721 26.3291L31.4246 26.6975C31.6088 26.808 31.8666 26.8448 32.0508 26.6975L32.3455 26.5501C32.5665 26.4028 32.898 26.4396 33.0822 26.6606L33.3769 26.9553C33.561 27.1395 33.5979 27.4342 33.4505 27.6552L33.34 27.8025C33.2295 27.9499 33.2295 28.1709 33.3032 28.355L33.5979 28.9812C33.6716 29.1286 33.7821 29.2391 33.9662 29.3127L34.2609 29.4233C34.5188 29.4969 34.6661 29.7179 34.6661 29.9758V30.4178C34.6661 30.7125 34.4451 30.9703 34.1504 31.0071H34.1136C33.9294 31.044 33.7452 31.1545 33.6347 31.3387L33.34 31.9649C33.2664 32.149 33.2664 32.3332 33.34 32.5174L33.4505 32.7384C33.561 32.9594 33.5242 33.2541 33.34 33.4382L32.8612 33.7329C32.677 33.9171 32.4192 33.9539 32.1982 33.8434L31.8298 33.6593C31.6825 33.5856 31.4615 33.5856 31.3141 33.6593L30.7984 33.9171C30.6511 33.9908 30.5038 34.1381 30.4669 34.3223L30.3933 34.617C30.3196 34.9116 30.0617 35.0958 29.7671 35.059L29.2145 35.0221C28.9567 34.9853 28.7725 34.838 28.6989 34.5801L28.662 34.3591C28.6252 34.1749 28.4778 34.0276 28.2937 33.9539L27.7043 33.7329C27.5201 33.6593 27.336 33.6961 27.1886 33.7698L27.0413 33.8434C26.8203 33.9908 26.4888 33.9539 26.3046 33.7329L25.9362 33.3646C25.7521 33.1804 25.7152 32.8857 25.8626 32.6647L25.9731 32.4805C26.0836 32.2964 26.0836 32.0385 25.9731 31.8175L25.5311 31.1913C25.4574 31.0808 25.3469 31.0071 25.2364 30.9703L25.1259 30.9335C24.9049 30.8598 24.7207 30.6388 24.7207 30.381V30.0126C24.7207 29.7548 24.9049 29.5338 25.1627 29.4601L25.4574 29.3864C25.6047 29.3127 25.7152 29.2022 25.7889 29.0917Z" fill="white" stroke="#275F77" stroke-width="0.580677" stroke-miterlimit="10"/>
<path id="Vector_12" d="M29.6197 32.6645C31.0234 32.6645 32.1613 31.5266 32.1613 30.1229C32.1613 28.7192 31.0234 27.5813 29.6197 27.5813C28.216 27.5813 27.0781 28.7192 27.0781 30.1229C27.0781 31.5266 28.216 32.6645 29.6197 32.6645Z" fill="white" stroke="#275F77" stroke-width="0.580677" stroke-miterlimit="10"/>
</g>
</svg>
