<svg width="103" height="103" viewBox="0 0 103 103" fill="none" xmlns="http://www.w3.org/2000/svg">
<g id="Group 539">
<circle id="Ellipse 109" cx="51.5" cy="51.5" r="51.5" fill="#C4C4C4"/>
<path id="Vector" d="M51.4996 85.6479C70.3591 85.6479 85.6477 70.3593 85.6477 51.4999C85.6477 32.6404 70.3591 17.3518 51.4996 17.3518C32.6402 17.3518 17.3516 32.6404 17.3516 51.4999C17.3516 70.3593 32.6402 85.6479 51.4996 85.6479Z" stroke="#757575" stroke-width="2.78378" stroke-miterlimit="10"/>
<path id="Vector_2" d="M35.6196 80.9126V68.4617C35.6196 63.4201 38.4568 58.8276 42.9473 56.5619C49.1727 53.4186 56.582 53.7452 62.5013 57.4396L62.7666 57.6029C66.6856 60.0319 69.0533 64.3182 69.0533 68.9312V80.933" stroke="#757575" stroke-width="2.78378" stroke-miterlimit="10"/>
<path id="Vector_3" d="M52.3363 53.643C58.4574 53.643 63.4196 48.6808 63.4196 42.5596C63.4196 36.4385 58.4574 31.4763 52.3363 31.4763C46.2151 31.4763 41.2529 36.4385 41.2529 42.5596C41.2529 48.6808 46.2151 53.643 52.3363 53.643Z" stroke="#757575" stroke-width="2.78378" stroke-miterlimit="10"/>
</g>
</svg>
